/* XPM */
static char *amam_right1677509770[] = {
/* columns rows colors chars-per-pixel */
"40 40 201 2 ",
"   c None",
".  c #010102",
"X  c #0C0402",
"o  c #04070F",
"O  c #130502",
"+  c #1B0602",
"@  c #140A02",
"#  c #1B0B02",
"$  c #1B1104",
"%  c #171103",
"&  c #110E1E",
"*  c #1E1A18",
"=  c #230601",
"-  c #240C02",
";  c #2D0902",
":  c #2A0303",
">  c #310702",
",  c #350A02",
"<  c #3C0702",
"1  c #241202",
"2  c #2D1303",
"3  c #241905",
"4  c #2D1D03",
"5  c #23160A",
"6  c #251C0C",
"7  c #2B1A0A",
"8  c #331603",
"9  c #3D1B03",
"0  c #341D0A",
"q  c #351B07",
"w  c #2E0B11",
"e  c #251B11",
"r  c #3C230D",
"t  c #34290E",
"y  c #392508",
"u  c #382917",
"i  c #2A2108",
"p  c #03042C",
"a  c #10152A",
"s  c #131935",
"d  c #222120",
"f  c #2C283B",
"g  c #430A02",
"h  c #480A01",
"j  c #4C1404",
"k  c #431C03",
"l  c #431603",
"z  c #561A03",
"x  c #5A1C02",
"c  c #521702",
"v  c #420F10",
"b  c #650305",
"n  c #750303",
"m  c #621E03",
"M  c #681618",
"N  c #462204",
"B  c #492609",
"V  c #542604",
"C  c #5B2403",
"Z  c #5B2C05",
"A  c #532A0A",
"S  c #532A06",
"D  c #493207",
"F  c #593C05",
"G  c #5B3406",
"H  c #462B15",
"J  c #4E351E",
"K  c #5F3917",
"L  c #573418",
"P  c #662C05",
"I  c #663609",
"U  c #763A08",
"Y  c #613A17",
"T  c #463120",
"R  c #543D28",
"E  c #463C38",
"W  c #683F24",
"Q  c #7B4204",
"!  c #744B06",
"~  c #785406",
"^  c #774319",
"/  c #67420E",
"(  c #5B422F",
")  c #724A26",
"_  c #6A4F38",
"`  c #7A5536",
"'  c #6A4D24",
"]  c #1F2850",
"[  c #1C2349",
"{  c #343841",
"}  c #080D66",
"|  c #444445",
" . c #79614D",
".. c #666A6E",
"X. c #78736F",
"o. c #9E0507",
"O. c #9F0709",
"+. c #8A1B1B",
"@. c #A4080A",
"#. c #A00504",
"$. c #B22324",
"%. c #C41D1D",
"&. c #D6201F",
"*. c #D82624",
"=. c #D6302F",
"-. c #854C05",
";. c #894F06",
":. c #894B07",
">. c #865205",
",. c #895907",
"<. c #884715",
"1. c #934E1A",
"2. c #934E16",
"3. c #96541A",
"4. c #926006",
"5. c #94650F",
"6. c #A1700B",
"7. c #B5791A",
"8. c #A7781B",
"9. c #824D25",
"0. c #9E5922",
"q. c #975723",
"w. c #865A37",
"e. c #85572E",
"r. c #976235",
"t. c #A86B3A",
"y. c #B16C34",
"u. c #C0783B",
"i. c #AB4041",
"p. c #B54749",
"a. c #896749",
"s. c #916847",
"d. c #976C47",
"f. c #9D714D",
"g. c #A57752",
"h. c #BC7847",
"j. c #807871",
"k. c #D7504E",
"l. c #C37F4D",
"z. c #BB8818",
"x. c #C1881B",
"c. c #C6901E",
"v. c #C68D24",
"b. c #CA972D",
"n. c #CFA231",
"m. c #CFA33E",
"M. c #ECB531",
"N. c #E9B63C",
"B. c #8A837E",
"V. c #B18D72",
"C. c #AF927F",
"Z. c #C9864B",
"A. c #D28C4F",
"S. c #CD8A50",
"D. c #C28C5B",
"F. c #D48F54",
"G. c #DA955A",
"H. c #DC9A62",
"J. c #C49C7F",
"K. c #E39D62",
"L. c #E9A062",
"P. c #E9A469",
"I. c #F2AB6F",
"U. c #E0B962",
"Y. c #F9B47B",
"T. c #F9C853",
"R. c #404C9D",
"E. c #787C80",
"W. c #4559B7",
"Q. c #6550AC",
"!. c #6C58BF",
"~. c #0B11CD",
"^. c #0E13FB",
"/. c #1D24FF",
"(. c #4358D1",
"). c #5F73CF",
"_. c #4B63D0",
"`. c #4D64C9",
"'. c #4E65FF",
"]. c #5169FF",
"[. c #546DE5",
"{. c #7D8285",
"}. c #7385F2",
"|. c #969698",
" X c #8D8681",
".X c #B8A08B",
"XX c #CF9F9E",
"oX c #D09C9C",
"OX c #CCB08A",
"+X c #CBAA8C",
"@X c #F8B681",
"#X c #FEBA82",
"$X c #CEA2A2",
"%X c #C8BBB6",
"&X c #FFC38B",
"*X c #DFC2AA",
"=X c #FBD1AF",
"-X c #F3D8B7",
";X c #BAC3E9",
":X c #C5C4C4",
">X c #C5CFF2",
/* pixels */
"                                                                                ",
"                                                                                ",
"                                                                                ",
"                                                                                ",
"                                  @ $ d i % % @ X                               ",
"                              @ 4 3.T.-XN.6.4.U z 1 X                           ",
"                            4 Q 5.n.n.n.~ ~ G Z C Z c = X                       ",
"                          # I F @ $ t t t t t t 3 # , < O                       ",
"                        @ 4 u { r.z.M.M.M.M.M.M.x.;.D i $ @                     ",
"                    O 3 ' m.T.*X+Xb.;.>.>.>.>.>.b.5.x.7.:.S $ @                 ",
"                  X A z.U.OX7.x g g , , , , , , , g x P Q ,.:.S @               ",
"                O I v.v.Q c > , , ; . . . # . . . : , , < h P ;.G #             ",
"              . N 7.8.G l + . . . . . 1 r U H 1 X . O X + , , V :.Z .           ",
"              . y G - . . X @ . . . 2 <.Z.Z.Z.1.q . = @ . . . X N F 4           ",
"            . 3 4 = X . X - = X 4 A 1.S.#X#X#XG.0.N X . . . O + O N ~ .         ",
"            . G :.m , O O = X 2 B W ) H.@X#XL.g.) B 8 @ . . O , , P ~ .         ",
"              8 k 8 ; + . O k P J _ ` Z.Y.#XF.` _ R P 2 . . . X 9 I D           ",
"                . O O . . O A 2.q.s.f.#X#X#X#Xg.s.q.1.0 . . . O 9 D             ",
"                  + # . . O B 1.^ ..X.@X#X#XY.X...) 3.r . . . . .               ",
"                    . . . X V r.+X.X X@X#X#XY.+XB..Xt.q . . . .                 ",
"                      . u ( 7 D.%X+ X Y.@X@X#XA . .Xa.@ 0 K 7 .                 ",
"                        R d.5 Z.%XE. X#X#X#XY.B.{. .a.L r.L.t.r                 ",
"                        q <.^ 0.L.=X=X#X#X#X#X+XV.* r.q.Z.&XY.` .               ",
"                        @ y r l 3.F.#X#X#X#X&XL.0.Z r ^ h.P.&Xs..               ",
"                            . . q <.y.A.A.F.F.y.q.N . 5 I Z.I.) .               ",
"                            # A Y - - t q 0 r 1 - K d.w.P h.K.K .               ",
"                            # 1.D.O b +.|.|.M b X I h.K.K.F.w.5                 ",
"                            @ r 9.O o.&.p.p.%.@.n , 4 T R H 5                   ",
"                                ; n #.*.oX$X=.@.o.: .                           ",
"                                & !.Q.v i.k.*.@.o.:                             ",
"                              s ).>X;XW.w oX$.o.< X                             ",
"                        . . . o f ` | ;X`.{ = = R._.]                           ",
"                      + V ~ ! k e G.w.}./.(._.~.^.'.]                           ",
"                      y Q C x j j ^ e a p s [.].^.} ) r                         ",
"                      - C U ,.;.C @         a a p W G.(                         ",
"                        y >.c x c , .             $ e                           ",
"                          - C ,.! X                                             ",
"                            X @ %                                               ",
"                                                                                ",
"                                                                                "
};
