/* XPM */
static char *biha_left1677509770[] = {
/* columns rows colors chars-per-pixel */
"40 40 191 2 ",
"   c None",
".  c #020202",
"X  c #0B0402",
"o  c #0B0905",
"O  c #140502",
"+  c #1B0402",
"@  c #130A03",
"#  c #1C0D02",
"$  c #191008",
"%  c #240503",
"&  c #230D02",
"*  c #2C0A02",
"=  c #2E0305",
"-  c #350304",
";  c #340B02",
":  c #3C0C02",
">  c #3B0506",
",  c #231203",
"<  c #2D1504",
"1  c #251B02",
"2  c #2A1B0C",
"3  c #331402",
"4  c #361A04",
"5  c #3C1A03",
"6  c #361B08",
"7  c #241B12",
"8  c #2A2103",
"9  c #3B220B",
"0  c #3D2611",
"q  c #362617",
"w  c #2C2318",
"e  c #00002D",
"r  c #0E162D",
"t  c #0A0F32",
"y  c #000030",
"u  c #3D2B22",
"i  c #450D02",
"p  c #4A0D02",
"a  c #4D0B0B",
"s  c #410608",
"d  c #580707",
"f  c #461202",
"g  c #421D03",
"h  c #481D04",
"j  c #4A1703",
"k  c #571803",
"l  c #5D1E03",
"z  c #511602",
"x  c #5B0C14",
"c  c #650304",
"v  c #6A0305",
"b  c #68080C",
"n  c #740305",
"m  c #7C0707",
"M  c #442E04",
"N  c #552405",
"B  c #5B2404",
"V  c #5E2B07",
"C  c #493204",
"Z  c #593905",
"A  c #4D2F15",
"S  c #412B13",
"D  c #523216",
"F  c #622203",
"G  c #632E04",
"H  c #6B2C04",
"J  c #6C3A04",
"K  c #683306",
"L  c #723404",
"P  c #793C05",
"I  c #673C18",
"U  c #593928",
"Y  c #5C4005",
"T  c #694305",
"R  c #7D4305",
"E  c #784905",
"W  c #7D5206",
"Q  c #6D431C",
"!  c #7B5F1D",
"~  c #754A22",
"^  c #794B21",
"/  c #6D5039",
"(  c #72543C",
")  c #171F67",
"_  c #1D2878",
"`  c #303B77",
"'  c #776855",
"]  c #890709",
"[  c #940507",
"{  c #9D0507",
"}  c #9D120E",
"|  c #8D1313",
" . c #941313",
".. c #A10507",
"X. c #A5090A",
"o. c #AB0E0F",
"O. c #B40C0D",
"+. c #B30F10",
"@. c #BB1211",
"#. c #B11817",
"$. c #AD1A15",
"%. c #C31515",
"&. c #CC1817",
"*. c #CD1A19",
"=. c #D51D1B",
"-. c #DB1E1C",
";. c #DD201E",
":. c #E3201E",
">. c #814705",
",. c #854D05",
"<. c #884F06",
"1. c #855306",
"2. c #8A5206",
"3. c #865B06",
"4. c #905D06",
"5. c #8B4B19",
"6. c #814212",
"7. c #97541E",
"8. c #956406",
"9. c #986607",
"0. c #9C6B07",
"q. c #956209",
"w. c #9D6C09",
"e. c #976806",
"r. c #9F6212",
"t. c #A06F09",
"y. c #A4740C",
"u. c #AE7C12",
"i. c #AA7D1A",
"p. c #B57A1A",
"a. c #AA6D18",
"s. c #8D5B2E",
"d. c #9D5821",
"f. c #A25E2C",
"g. c #A96A29",
"h. c #BB7D21",
"j. c #A46332",
"k. c #B87136",
"l. c #B87941",
"z. c #B37E55",
"x. c #B48314",
"c. c #C18E1A",
"v. c #C38F17",
"b. c #C3901C",
"n. c #C7921B",
"m. c #CA9620",
"M. c #CF9921",
"N. c #C6982A",
"B. c #D29E24",
"V. c #C48424",
"C. c #D6A226",
"Z. c #D9A426",
"A. c #D8A22A",
"S. c #E5AF31",
"D. c #E8B231",
"F. c #F4BC35",
"G. c #FAC33A",
"H. c #C78854",
"J. c #D89356",
"K. c #CD8749",
"L. c #D0A35F",
"P. c #DF9C62",
"I. c #F8B277",
"U. c #FFCA44",
"Y. c #FACC5A",
"T. c #F1CB70",
"R. c #F4D27E",
"E. c #0000A0",
"W. c #4756AC",
"Q. c #0100D5",
"!. c #1319D6",
"~. c #2D29DB",
"^. c #0405FA",
"/. c #3140DE",
"(. c #3546EE",
"). c #3E51FF",
"_. c #4A61CB",
"`. c #4F67D9",
"'. c #546EE2",
"]. c #C6A583",
"[. c #E4B58E",
"{. c #F0B483",
"}. c #CFBEB0",
"|. c #FFC28E",
" X c #EFD182",
".X c #F3D487",
"XX c #DFCCA4",
"oX c #EBDAB0",
"OX c #E4DED1",
"+X c #E8E0CC",
"@X c gray90",
/* pixels */
"                                                                                ",
"                                                                                ",
"                                                                                ",
"                              . X . o . . . . .                                 ",
"                          . . N W N.i.3.3.E l ; . .                             ",
"                        X V 1.A.XXOXT.v.1.R 2.B i : .                           ",
"                      @ V 8.S.oX@X.XU.m.8.2.H k F f : X                         ",
"                      @ q.D.U.+XR.U.n.y.e.e.,.F f + i X                         ",
"                    @ G 0.u.G.Y.U.c.B.c.e.2.>.2.B : O : X                       ",
"                  . X , R 9.u.F.c.A.m.y.e.9.2.L f O ; O . .                     ",
"              . & 6 % | , R e.u.w.u.y.<.2.4.H k F ; # v O * O .                 ",
"            < Z W T * *.c & 1 J 9.w.<.<.2.P H N # + v [ O : : ; +               ",
"          3 J 9.w.1.j d %. .v * 1 1 1 1 1 # # ; v n [ > - i p l j +             ",
"        . 5 a.b.8.0.T O +.;.&. .| | | |  .m b  .{ { [ X : p l H l * .           ",
"        . 5 V.G.c.e.3.g - a o.-.:.:.:.:.&.%.%.O.] - - - i l H L B % .           ",
"          # K L. Xv.8.,.Y 5 - a d a a a s s a - - * * l F ,.P F ; O             ",
"            + U ]..XZ.B.0.1.Y 9 5 5 5 5 5 5 5 5 g F F <.2.,.H ; O               ",
"              O S ' p.m.C.B.t.1.,.<.,.2.2.2.2.2.2.2.2.,.<.g % X                 ",
"                  X 3 Z p.M.C.C.Z.Z.Z.x.x.b.0.0.0.<.,.5 3 X                     ",
"                    . . 3 C ! g.h.h.h.r.r.a.>.K M 3 3 . .                       ",
"                    u / . . . + * 3 3 3 3 3 3 + . . o ( 7                       ",
"                    7 H.. . . . . . . . . . . . . . o H.7                       ",
"                    7 5.A . . . . . . . . . . . . o D 5.@                       ",
"                    X g I 4 X . . . . . . . . . o < I g @                       ",
"                  @ < & & g . . , o . 2 2 O & . X H 0 o                         ",
"                @ 5 5.f.6.3 0 < h @ . 0 0 # g 3 A j.g.@                         ",
"                2 d.J.I.g.N d.V ; > a > = - ; I J.P.~ @                         ",
"                0 K.|.[.~ 0 h . ] =.;.%.X.{ v w H.Q .                           ",
"                6 k.{.}.q l.@ + #.=.=.;.%...n ; g .                             ",
"                & V s.z.5.z.$ ] &.;.;.=.-.%.{ n .                               ",
"                  . . @ ^ . . c +.;.;.*.&.@.[ d .                               ",
"                        .   . r x } $.] n n x r .                               ",
"                            o `.) e y r t y _ _..                               ",
"                            . W.!.^.^.).(.Q.~.W..                               ",
"                              . . E.~.'.` 3 H N @                               ",
"                                  . o . 6 H z k B .                             ",
"                                      . M q.<.L G .                             ",
"                                      . 6 H G q.W .                             ",
"                                        M q.W H V .                             ",
"                                          o o o .                               "
};
