/* XPM */
static char *fotor_2023_2_26_14_22_38_removebg_preview1677879922[] = {
/* columns rows colors chars-per-pixel */
"40 40 149 2 ",
"   c None",
".  c #8C2E02",
"X  c #8A2F08",
"o  c #8F3406",
"O  c #8E350F",
"+  c #933404",
"@  c #993706",
"#  c #983907",
"$  c #943A0A",
"%  c #9E3C09",
"&  c #8C3411",
"*  c #8B3B18",
"=  c #903510",
"-  c #9C3F11",
";  c #933F1A",
":  c #A23F07",
">  c #A13F09",
",  c #9D4109",
"<  c #9B4B1B",
"1  c #A4430A",
"2  c #AB460A",
"3  c #AD490D",
"4  c #B34B0D",
"5  c #BA4F0D",
"6  c #B7510E",
"7  c #BB520E",
"8  c #A34B15",
"9  c #A94E16",
"0  c #B44F10",
"q  c #AE541A",
"w  c #B35112",
"e  c #BB5413",
"r  c #BC5A16",
"t  c #B2581B",
"y  c #BD5E18",
"u  c #9A4F26",
"i  c #A5552E",
"p  c #AA5C2D",
"a  c #B65E20",
"s  c #B86425",
"d  c #BE6827",
"f  c #B96530",
"g  c #C35611",
"h  c #C45913",
"j  c #CC5E15",
"k  c #C66017",
"l  c #CE6014",
"z  c #C3631C",
"x  c #CB6618",
"c  c #C56B1F",
"v  c #CC6B1C",
"b  c #D16316",
"n  c #D86716",
"m  c #D56A19",
"M  c #DD6C19",
"N  c #C7701F",
"B  c #D7721D",
"V  c #DE731C",
"C  c #E26F18",
"Z  c #E4751C",
"A  c #E5791D",
"S  c #EA7C1C",
"D  c #C76624",
"F  c #C06D27",
"G  c #CC6D21",
"H  c #CF6C2A",
"J  c #CE7523",
"K  c #C27628",
"L  c #D47422",
"P  c #DB7522",
"I  c #D57A26",
"U  c #DC7C25",
"Y  c #D37C2A",
"T  c #D87F2A",
"R  c #CB7B30",
"E  c #DC7C30",
"W  c #E47D21",
"Q  c #E97D20",
"!  c #EE831E",
"~  c #F18E1F",
"^  c #F3911E",
"/  c #DC832B",
"(  c #E58325",
")  c #EC8622",
"_  c #E78826",
"`  c #EB8B24",
"'  c #E4842A",
"]  c #E48B2D",
"[  c #E98C2D",
"{  c #F28B21",
"}  c #ED9325",
"|  c #EF9826",
" . c #EB922C",
".. c #EF982E",
"X. c #F49A23",
"o. c #F29C2B",
"O. c #E18530",
"+. c #E38C32",
"@. c #E88F32",
"#. c #E79031",
"$. c #EC9434",
"%. c #EC9A34",
"&. c #E89438",
"*. c #E79939",
"=. c #EA9A3D",
"-. c #F19730",
";. c #F09E38",
":. c #F5A125",
">. c #F8A422",
",. c #FAAC26",
"<. c #F5A028",
"1. c #F8AD2D",
"2. c #FCB225",
"3. c #FBBF2C",
"4. c #E7A03E",
"5. c #EEA33B",
"6. c #ECA93A",
"7. c #F0A332",
"8. c #F5AF34",
"9. c #F2A738",
"0. c #F4B036",
"q. c #F3B33D",
"w. c #F3BA3F",
"e. c #F5C038",
"r. c #D4924C",
"t. c #E69B47",
"y. c #EFA742",
"u. c #EEB149",
"i. c #F0BD47",
"p. c #F5BE4A",
"a. c #F2BE54",
"s. c #C79B6D",
"d. c #D5AA77",
"f. c #F7C645",
"g. c #F7CC48",
"h. c #F9D143",
"j. c #FADB49",
"k. c #F7D555",
"l. c #FADB5D",
"z. c #F6D865",
"x. c #BFBBA9",
"c. c #BCBFB1",
"v. c #FAEE86",
"b. c #C1C3B5",
"n. c #C5C6BA",
"m. c #C6C8B9",
"M. c #C9CBBE",
"N. c #CCCEC2",
"B. c #CDD0C1",
/* pixels */
"                                                                                ",
"                                                                                ",
"                                                                                ",
"                                                                                ",
"                            N.                                                  ",
"                      M.M.b.b.N.                                                ",
"                    n.M.M.b.n.N.                                                ",
"                    n.n.n.b.M.                                                  ",
"                      b.b.b.N.                                                  ",
"                          c.M.                                                  ",
"                          b.m.B.                                                ",
"                          m.b.B.                                                ",
"                            b.M.N.                                              ",
"                            c.x.d.t.                                            ",
"                            s.r.+.@.&.t.                                        ",
"                            Y / ] +.+.$.=.                                      ",
"                            Y / / / ] $.$.=.                                    ",
"                          R J Y T / ] #.%.5.4.                                  ",
"                          K J L I U / +.$.%.7.5.                                ",
"                          F N J I / [ [  .%.9.9.y.                              ",
"                          d D J L U ' [  ...7.u.0.u.                            ",
"                          s c G L U ( _  .o.<.0.w.q.                            ",
"                          a y v m B ( _ ` | :.0.z.f.q.                          ",
"                          t y c v B ( ( ` | :.1.h.h.e.                          ",
"                          q e y x m V ( ) | :.,.e.j.k.q.                        ",
"                          9 w y k b V Q ) { X.>.2.l.v.w.                        ",
"                          9 3 e h l m Z Q ) ~ X.>.p.v.i.*.                      ",
"                          8 2 w e h l M A S ! { ^ X.a.5.@.                      ",
"                          < , 2 w e h b M Z S S ! ) -. .O.                      ",
"                          < $ , 3 4 7 g b M C Z A S [ ' E                       ",
"                          u $ @ : 2 4 7 g b n M M V W U                         ",
"                            $ + @ : 2 4 4 e j b b b P H                         ",
"                            ; + o + : : 2 4 4 h h k D                           ",
"                              & . o + > : 1 2 4 6 r f                           ",
"                                & . . + @ % : 1 3 p                             ",
"                                  * X . . + + - i                               ",
"                                      * & = ;                                   ",
"                                                                                ",
"                                                                                ",
"                                                                                "
};
