/* XPM */
static char *fotor_2023_2_26_14_21_59_removebg_preview1677879922[] = {
/* columns rows colors chars-per-pixel */
"40 40 148 2 ",
"   c None",
".  c #8C2E02",
"X  c #8A2F08",
"o  c #8F3406",
"O  c #8E350F",
"+  c #933404",
"@  c #993706",
"#  c #983907",
"$  c #943A0A",
"%  c #9E3C09",
"&  c #8C3411",
"*  c #8B3C18",
"=  c #903510",
"-  c #9C3F11",
";  c #933F1A",
":  c #A23F07",
">  c #A13F09",
",  c #9D4109",
"<  c #9B4B1B",
"1  c #A4430A",
"2  c #AB460A",
"3  c #AD490D",
"4  c #B34B0D",
"5  c #BA4F0D",
"6  c #B7510E",
"7  c #BB520E",
"8  c #A34B15",
"9  c #A94E16",
"0  c #B44F10",
"q  c #AE541A",
"w  c #B35112",
"e  c #BB5413",
"r  c #BC5A16",
"t  c #B2581B",
"y  c #BD5E18",
"u  c #9A4F27",
"i  c #A5552E",
"p  c #AA5C2D",
"a  c #B65E20",
"s  c #B86425",
"d  c #BE6827",
"f  c #B96530",
"g  c #C35611",
"h  c #C45913",
"j  c #CC5E15",
"k  c #C66017",
"l  c #CE6014",
"z  c #C3631C",
"x  c #CB6618",
"c  c #C56B1F",
"v  c #CC6B1C",
"b  c #D16316",
"n  c #D86716",
"m  c #D56A19",
"M  c #DD6C19",
"N  c #C7701F",
"B  c #D7721D",
"V  c #DE731C",
"C  c #E26F18",
"Z  c #E4751C",
"A  c #E5791D",
"S  c #EA7C1C",
"D  c #C76624",
"F  c #C06E27",
"G  c #CC6D21",
"H  c #CF6C2A",
"J  c #CE7523",
"K  c #C27628",
"L  c #D47422",
"P  c #DB7522",
"I  c #D57A26",
"U  c #DC7C25",
"Y  c #D37C2A",
"T  c #D87F2A",
"R  c #CB7B31",
"E  c #DD7C30",
"W  c #E47D21",
"Q  c #E97D20",
"!  c #EE831E",
"~  c #F18E1F",
"^  c #F3911E",
"/  c #DC832B",
"(  c #E58325",
")  c #EC8622",
"_  c #E78826",
"`  c #EB8B24",
"'  c #E3842B",
"]  c #E48B2D",
"[  c #E98C2D",
"{  c #F28B21",
"}  c #ED9325",
"|  c #EF9826",
" . c #EB922C",
".. c #EF982E",
"X. c #F49A23",
"o. c #F29C2B",
"O. c #E38C32",
"+. c #E88F32",
"@. c #E79031",
"#. c #EC9434",
"$. c #EC9A34",
"%. c #E89438",
"&. c #E79939",
"*. c #EA9A3D",
"=. c #F19730",
"-. c #F09E38",
";. c #F5A125",
":. c #F8A422",
">. c #FAAC26",
",. c #F5A028",
"<. c #F8AD2D",
"1. c #FCB225",
"2. c #FBBF2C",
"3. c #E7A03E",
"4. c #EEA33B",
"5. c #ECA93A",
"6. c #F0A332",
"7. c #F5AF34",
"8. c #F2A738",
"9. c #F4B036",
"0. c #F3B33D",
"q. c #F3BA3F",
"w. c #F5C038",
"e. c #D4924C",
"r. c #E69B47",
"t. c #EFA742",
"y. c #EEB149",
"u. c #F0BD47",
"i. c #F5BE4A",
"p. c #F2BE54",
"a. c #C79B6D",
"s. c #D5AA77",
"d. c #F7C645",
"f. c #F7CC48",
"g. c #F9D143",
"h. c #FADB49",
"j. c #F7D555",
"k. c #FADB5D",
"l. c #F6D865",
"z. c #BFBBA9",
"x. c #BCBFB1",
"c. c #FAEE86",
"v. c #C1C3B5",
"b. c #C5C6B9",
"n. c #C6C8BB",
"m. c #C9CBBE",
"M. c #CCCEC2",
"N. c #CDD0C1",
/* pixels */
"                                                                                ",
"                                                                                ",
"                                                                                ",
"                                                                                ",
"                                                                                ",
"                                                                                ",
"                                                                                ",
"                                                                                ",
"                                                                                ",
"                                                                                ",
"                                                                v.M.            ",
"                                                              v.b.m.M.          ",
"                                                              v.b.m.n.          ",
"                  u < < 8 9 9 q a s s d d d /           b.v.x.v.v.v.v.          ",
"              ; $ $ $ , 1 3 w r y y z G J J J Y / a.x.v.v.n.m.M.M.b.v.m.        ",
"            O + + # 1 2 0 r r z z c G J J J Y / / e.z.m.m.N.      M.N.          ",
"          & . o @ 1 3 4 r h k x v v L L I I T / ] O.s.m.                        ",
"        * . + @ : 3 4 e h l b m B P U U U / / / O.@.r.                          ",
"        X . + > 2 4 7 h l m V Z W ( ( _ ' ] ] ] +.%.                            ",
"      * . + > : 3 5 h l M Z A ( ( _ _ [ +.[ +.+.%.r.                            ",
"      O . @ : 2 4 g b C Z S ) ` ` } [  . .#.$.-.*.                              ",
"      & o % 1 4 g l M Z S ) ` | | | o.o.$.$.-.*.                                ",
"      ; + > 2 5 j n C Z ! ~ X.X.,.,.o.6.8.4.3.                                  ",
"        - 1 4 g l C Z S { X.>.>.<.9.9.0.8.4.                                    ",
"        i 1 e h b M W ! ^ :.1.2.f.l.u.9.t.                                      ",
"          p r k m M A ) o.i.k.h.g.d.0.y.                                        ",
"            f D P ( ] =.p.c.c.j.w.0.                                            ",
"                H P _ ..5.u.0.0.                                                ",
"                    E ' +.*.                                                    ",
"                                                                                ",
"                                                                                ",
"                                                                                ",
"                                                                                ",
"                                                                                ",
"                                                                                ",
"                                                                                ",
"                                                                                ",
"                                                                                ",
"                                                                                ",
"                                                                                "
};
