/* XPM */
static char *collmeet1677420735[] = {
/* columns rows colors chars-per-pixel */
"40 40 138 2 ",
"   c None",
".  c #842C07",
"X  c #8B2E03",
"o  c #832C08",
"O  c #8B2D08",
"+  c #8E3204",
"@  c #8B320A",
"#  c #8B380C",
"$  c #943404",
"%  c #993706",
"&  c #933807",
"*  c #983907",
"=  c #943C0A",
"-  c #9C3B09",
";  c #A23F07",
":  c #A13F09",
">  c #97410E",
",  c #9E420B",
"<  c #984116",
"1  c #A4430A",
"2  c #AB460A",
"3  c #AD4A0D",
"4  c #B34B0D",
"5  c #BA4F0D",
"6  c #B7510E",
"7  c #BB520E",
"8  c #A74B10",
"9  c #AC4F13",
"0  c #A04B18",
"q  c #B44F10",
"w  c #B35313",
"e  c #BC5412",
"r  c #BC5A16",
"t  c #B1561E",
"y  c #B45B1B",
"u  c #BD5E19",
"i  c #BB641D",
"p  c #BE6D1B",
"a  c #C35611",
"s  c #C45913",
"d  c #CC5E15",
"f  c #C66016",
"g  c #CE6014",
"h  c #C4621A",
"j  c #CB6618",
"k  c #C66C1F",
"l  c #CC6B1C",
"z  c #D16316",
"x  c #D86716",
"c  c #D56A19",
"v  c #DD6C19",
"b  c #D7721D",
"n  c #DE731C",
"m  c #E26F18",
"M  c #E4751C",
"N  c #E5791D",
"B  c #EA7C1C",
"V  c #C56520",
"C  c #CC6B24",
"Z  c #C57020",
"A  c #CC7422",
"S  c #D47422",
"D  c #DB7522",
"F  c #D37A26",
"G  c #DC7C25",
"H  c #D67C2A",
"J  c #D87F2A",
"K  c #DB7B30",
"L  c #E47D21",
"P  c #E97D20",
"I  c #EE831E",
"U  c #F18E1F",
"Y  c #F3911E",
"T  c #DC842B",
"R  c #E58325",
"E  c #EC8622",
"W  c #E78826",
"Q  c #EB8B24",
"!  c #E4842A",
"~  c #E48B2D",
"^  c #E98C2D",
"/  c #F28B21",
"(  c #ED9325",
")  c #EF9826",
"_  c #EB922C",
"`  c #EF982E",
"'  c #F49A23",
"]  c #F29C2B",
"[  c #E08531",
"{  c #E48D33",
"}  c #E88F31",
"|  c #E79031",
" . c #EB9434",
".. c #EC9A34",
"X. c #E5973D",
"o. c #E79C3B",
"O. c #EA9A39",
"+. c #F19730",
"@. c #F09E38",
"#. c #F5A125",
"$. c #F8A422",
"%. c #FAAC26",
"&. c #F5A028",
"*. c #F8AD2D",
"=. c #FCB225",
"-. c #FBBF2C",
";. c #EDA23A",
":. c #ECAA3B",
">. c #F0A332",
",. c #F3AF36",
"<. c #F2A738",
"1. c #F3B135",
"2. c #F5BF35",
"3. c #F1B53E",
"4. c #F4BD3F",
"5. c #D4924C",
"6. c #F0BD46",
"7. c #F5BE4A",
"8. c #F2BE54",
"9. c #C39565",
"0. c #D4A976",
"q. c #F7C645",
"w. c #F7CC48",
"e. c #F9D143",
"r. c #FADB49",
"t. c #F7D555",
"y. c #FADB5D",
"u. c #F6D865",
"i. c #B7BBAF",
"p. c #BDBDAC",
"a. c #BDBEB1",
"s. c #BFC1B5",
"d. c #FAEE86",
"f. c #C1C3B4",
"g. c #C5C7B9",
"h. c #C6C8BB",
"j. c #CACBBD",
"k. c #CACCC1",
/* pixels */
"                                                                                ",
"                                                                                ",
"                                                                                ",
"                                  @ O . o                                       ",
"                              < - & $ X X X .                                   ",
"                            0 1 1 : - % $ X X .                                 ",
"                          t w e 3 1 1 : - % + X X                               ",
"                          V h s s 5 4 2 ; ; % $ $ @                             ",
"                        C D c z z d a 4 4 2 ; % $ @                             ",
"                        D R v v v x g a 5 4 2 : * & #                           ",
"                      K W ^ N N M m v z a 7 4 3 1 = =                           ",
"                      [ _ +.E I B M M m z a e w 1 , >                           ",
"                      { :.8.] Y / I B N v d s e w 1 ,                           ",
"                      o.6.d.7.$.' / E B N c d s e 3 8                           ",
"                        3.d.y.=.$.' / E B n j f r w 8                           ",
"                        ,.t.r.-.%.#.) Q R n c l s r 9                           ",
"                          2.e.w.*.#.' Q R L b l j u 9                           ",
"                          1.q.u.,.&.) ( W R D l l i y                           ",
"                            1.q.1.] ` _ W R G S C k y                           ",
"                            :.1.3.>.` _ ^ ! G S A k u                           ",
"                              ;.<.<..._ ^ ! G F A Z i                           ",
"                                O.;... .^ ~ T F F A Z                           ",
"                                  ;.O...| ~ T T H A Z                           ",
"                                    O.@. .~ T T T F                             ",
"                                      X. .{ { ~ T F                             ",
"                                        X. .{ | 5.9.                            ",
"                                            X.0.p.i.                            ",
"                                              j.j.s.                            ",
"                                                j.f.a.                          ",
"                                                j.h.a.                          ",
"                                                k.j.p.                          ",
"                                                  k.f.a.a.                      ",
"                                                k.k.f.g.h.a.                    ",
"                                                k.g.f.h.h.f.                    ",
"                                                k.g.s.g.g.                      ",
"                                                  h.s.                          ",
"                                                                                ",
"                                                                                ",
"                                                                                ",
"                                                                                "
};
