/* XPM */
static char *collmeet_removebg_preview1677879922[] = {
/* columns rows colors chars-per-pixel */
"40 40 150 2 ",
"   c None",
".  c #8C2E02",
"X  c #8A2F08",
"o  c #8F3406",
"O  c #8E350F",
"+  c #933404",
"@  c #993706",
"#  c #983907",
"$  c #943A0A",
"%  c #9E3C09",
"&  c #8C3411",
"*  c #8B3C18",
"=  c #903510",
"-  c #9C3F11",
";  c #933F1B",
":  c #A23F07",
">  c #A13F09",
",  c #9D4109",
"<  c #9B4B1B",
"1  c #A4430A",
"2  c #AB460A",
"3  c #AD490D",
"4  c #B34B0D",
"5  c #BA4F0D",
"6  c #B7510E",
"7  c #BB520E",
"8  c #A34B15",
"9  c #A84D15",
"0  c #B44F10",
"q  c #AA5016",
"w  c #AE541A",
"e  c #B35112",
"r  c #BB5413",
"t  c #BC5A16",
"y  c #B2581B",
"u  c #BD5E18",
"i  c #9A4F27",
"p  c #A5562E",
"a  c #AA5C2D",
"s  c #B65E20",
"d  c #B86425",
"f  c #BE6827",
"g  c #B96530",
"h  c #C35611",
"j  c #C45913",
"k  c #CC5E15",
"l  c #C66017",
"z  c #CE6014",
"x  c #C3631C",
"c  c #CB6618",
"v  c #C56B1E",
"b  c #CC6B1C",
"n  c #D16316",
"m  c #D86716",
"M  c #D56A19",
"N  c #DD6C19",
"B  c #C7701F",
"V  c #D7721D",
"C  c #DE731C",
"Z  c #E26F18",
"A  c #E4751C",
"S  c #E5791D",
"D  c #EA7C1C",
"F  c #C76624",
"G  c #C06D27",
"H  c #CC6D21",
"J  c #CE6C2B",
"K  c #CE7523",
"L  c #C27628",
"P  c #D47422",
"I  c #DB7522",
"U  c #D57A26",
"Y  c #DC7C25",
"T  c #D37C2A",
"R  c #D87F2A",
"E  c #CB7B30",
"W  c #DC7C30",
"Q  c #E47D21",
"!  c #E97D20",
"~  c #EE831E",
"^  c #F18E1F",
"/  c #F3911E",
"(  c #DC832B",
")  c #E58325",
"_  c #EC8622",
"`  c #E78826",
"'  c #EB8B24",
"]  c #E4842A",
"[  c #E48B2D",
"{  c #E98C2D",
"}  c #F28B21",
"|  c #ED9325",
" . c #EF9826",
".. c #EB922C",
"X. c #EF982E",
"o. c #F49A23",
"O. c #F29C2B",
"+. c #E18530",
"@. c #E38C32",
"#. c #E88F32",
"$. c #E79031",
"%. c #EC9434",
"&. c #EC9A34",
"*. c #E89438",
"=. c #E79939",
"-. c #EA9A3D",
";. c #F19730",
":. c #F09E38",
">. c #F5A125",
",. c #F8A422",
"<. c #FAAC26",
"1. c #F5A028",
"2. c #F8AD2D",
"3. c #FCB225",
"4. c #FBBF2C",
"5. c #E7A03E",
"6. c #EEA33B",
"7. c #ECA93A",
"8. c #F0A332",
"9. c #F5AF34",
"0. c #F2A738",
"q. c #F4B036",
"w. c #F3B33D",
"e. c #F3BA3F",
"r. c #F5C038",
"t. c #D4924C",
"y. c #E69B47",
"u. c #EFA742",
"i. c #EEB24A",
"p. c #F0BD47",
"a. c #F5BE4A",
"s. c #F2BE54",
"d. c #C79B6D",
"f. c #D5AA77",
"g. c #F7C645",
"h. c #F7CC48",
"j. c #F9D143",
"k. c #FADB49",
"l. c #F7D555",
"z. c #FADB5D",
"x. c #F6D865",
"c. c #BFBBA9",
"v. c #BCBFB1",
"b. c #FAEE86",
"n. c #C1C3B5",
"m. c #C4C6B9",
"M. c #C6C8BB",
"N. c #C9CBBE",
"B. c #CCCEC2",
"V. c #CED0C1",
/* pixels */
"                                                                                ",
"                                                                                ",
"                                                                                ",
"                                  < = & *                                       ",
"                              p - # + . . X *                                   ",
"                            a 1 1 % % @ + . . &                                 ",
"                          g t 6 3 2 1 : % + + . O                               ",
"                          F x j j 6 3 2 : : @ + . <                             ",
"                        J I M n n k h 4 4 2 : @ + =                             ",
"                        I ) N N m m n h 5 4 2 > @ $ i                           ",
"                      W ` { S S A Z N n h 7 4 4 1 $ <                           ",
"                      +...;._ ~ D D A N n h r e 2 , <                           ",
"                      #.7.s.O.} } ~ D A N z j r e 1 8                           ",
"                      =.p.b.g.o.o.^ _ ! A M k j r 3 9                           ",
"                        e.b.z.3.,.o.} _ ~ V n x u e q                           ",
"                        w.l.k.4.<.o. .' ) C M c j t w                           ",
"                          e.j.h.2.,. .' ) Q V c v u y                           ",
"                          w.g.x.q.1. .| ` ) V V H u s                           ",
"                            e.e.q.1.X...` ) Y P H x d                           ",
"                            i.q.w.8.X...{ ] Y P K v f                           ",
"                              u.0.0.&...{ [ Y U K H G                           ",
"                                6.6.&.%.#.] ( R K K L                           ",
"                                  5.:.%.#.( ( ( ( K E                           ",
"                                    -.:.%.[ ( ( ( T                             ",
"                                      -.%.@.@.[ ( E                             ",
"                                        y.*.#.@.t.d.                            ",
"                                            y.f.c.v.                            ",
"                                              V.N.n.                            ",
"                                                N.n.m.                          ",
"                                                V.M.n.                          ",
"                                                  N.v.                          ",
"                                                  V.n.n.n.                      ",
"                                                  B.n.m.m.m.                    ",
"                                                B.M.n.N.N.M.                    ",
"                                                B.n.n.N.B.                      ",
"                                                  N.                            ",
"                                                                                ",
"                                                                                ",
"                                                                                ",
"                                                                                "
};
