/* XPM */
static char *doorclose_copy1677549149[] = {
/* columns rows colors chars-per-pixel */
"40 40 240 2 ",
"   c #000000",
".  c #040409",
"X  c #080913",
"o  c #0C1517",
"O  c #161C2F",
"+  c #13262B",
"@  c #182C36",
"#  c #163039",
"$  c #1D3546",
"%  c #243E48",
"&  c #222454",
"*  c #233352",
"=  c #293668",
"-  c #292E75",
";  c #2B3678",
":  c #23424F",
">  c #25495C",
",  c #2C5A5E",
"<  c #2C456B",
"1  c #2E4B6E",
"2  c #354C6E",
"3  c #2D5A6A",
"4  c #2E4B73",
"5  c #2D4878",
"6  c #304D73",
"7  c #2B5579",
"8  c #345574",
"9  c #355C76",
"0  c #345879",
"q  c #345B7C",
"w  c #33636A",
"e  c #2E657D",
"r  c #386876",
"t  c #35637D",
"y  c #38627D",
"u  c #3D737F",
"i  c #2C348B",
"p  c #2E3C93",
"a  c #283A98",
"s  c #294787",
"d  c #2D5A87",
"f  c #335384",
"g  c #335C83",
"h  c #33568B",
"j  c #355B8C",
"k  c #2A4996",
"l  c #304195",
"z  c #314C9C",
"x  c #2E5A9D",
"c  c #335C93",
"v  c #395E93",
"b  c #325D9B",
"n  c #2D6080",
"m  c #346484",
"M  c #35638B",
"N  c #396788",
"B  c #356B8D",
"V  c #3A6D8C",
"C  c #3C7385",
"Z  c #3B728C",
"A  c #3A758C",
"S  c #2F6B93",
"D  c #346394",
"F  c #3B6392",
"G  c #356C93",
"H  c #3B6C93",
"J  c #35649B",
"K  c #39659C",
"L  c #346B9C",
"P  c #3B6B9C",
"I  c #3A7293",
"U  c #387694",
"Y  c #3B749B",
"T  c #3B7C9C",
"R  c #2C4CAC",
"E  c #2E55A6",
"W  c #375AA6",
"Q  c #335CA4",
"!  c #345CAA",
"~  c #336DA4",
"^  c #3A6DA2",
"/  c #3967AB",
"(  c #3C73A4",
")  c #3C7BA4",
"_  c #3B75AB",
"`  c #3877AA",
"'  c #3B6CB5",
"]  c #3B6FBB",
"[  c #3C77B5",
"{  c #3F73BB",
"}  c #427A8D",
"|  c #406E9A",
" . c #447A94",
".. c #42769B",
"X. c #427D9C",
"o. c #447BA5",
"O. c #427DAC",
"+. c #427DBB",
"@. c #3A77C2",
"#. c #3D819E",
"$. c #3B83A3",
"%. c #3D8BA6",
"&. c #3C83AB",
"*. c #3F89B9",
"=. c #3E9AB3",
"-. c #44849C",
";. c #458999",
":. c #4384A3",
">. c #458BA3",
",. c #4A8AA6",
"<. c #4384AB",
"1. c #438BAB",
"2. c #568DAE",
"3. c #4492A6",
"4. c #4A92A5",
"5. c #4499AD",
"6. c #4C9AAC",
"7. c #4284B4",
"8. c #468AB5",
"9. c #4A8CB3",
"0. c #4384BC",
"q. c #4489BA",
"w. c #4B8DB9",
"e. c #4595B3",
"r. c #4B95B2",
"t. c #4599B4",
"y. c #4B9CB4",
"u. c #4595BC",
"i. c #4B93BB",
"p. c #459BBC",
"a. c #4C9CBC",
"s. c #5493B4",
"d. c #5799BC",
"f. c #559CBD",
"g. c #619BB5",
"h. c #53A3AE",
"j. c #47A3BA",
"k. c #4CA4BD",
"l. c #54A8B7",
"z. c #5BB0BF",
"x. c #3F92C5",
"c. c #458AC2",
"v. c #4788C6",
"b. c #4A8DC3",
"n. c #508EC4",
"m. c #4595C3",
"M. c #4B93C4",
"N. c #4599C6",
"B. c #4B9BC3",
"V. c #4C95CA",
"C. c #4C9BCB",
"Z. c #539EC3",
"A. c #5394C8",
"S. c #519CCC",
"D. c #458DD0",
"F. c #4794D2",
"G. c #4BA2C4",
"H. c #48A9C7",
"J. c #4DA4CC",
"K. c #4CABCC",
"L. c #51A3C5",
"P. c #53AEC6",
"I. c #52A3CC",
"U. c #53ABCC",
"Y. c #5BAAC9",
"T. c #4DB1C9",
"R. c #58B6C6",
"E. c #54B4CD",
"W. c #4BAED4",
"Q. c #53A3D1",
"!. c #56AAD3",
"~. c #59ACD7",
"^. c #4DB6D5",
"/. c #54B4D3",
"(. c #5BB3D3",
"). c #54BBD4",
"_. c #5BBBD4",
"`. c #55B5DC",
"'. c #5AB4DB",
"]. c #55BADC",
"[. c #5ABDDA",
"{. c #60A7C5",
"}. c #7BB6CB",
"|. c #62BED8",
" X c #76BED8",
".X c #5BBBE0",
"XX c #5BC3CC",
"oX c #54C2D7",
"OX c #5CC4D4",
"+X c #5CC9D6",
"@X c #54C4DD",
"#X c #5CC3DC",
"$X c #5CCBDD",
"%X c #5FD0DF",
"&X c #64C2D5",
"*X c #62C4DB",
"=X c #63CCDC",
"-X c #6DCCDC",
";X c #66D1DE",
":X c #78D1D6",
">X c #4FC3E0",
",X c #5CC4E2",
"<X c #5ACAE7",
"1X c #5CCCE4",
"2X c #5CD2E5",
"3X c #5ED4EB",
"4X c #66C6E5",
"5X c #62CCE5",
"6X c #62CEE9",
"7X c #63D4E5",
"8X c #6BD4E2",
"9X c #67DAE4",
"0X c #62D4EA",
"qX c #6BD5EA",
"wX c #64DAEB",
"eX c #6BDCEB",
"rX c #73DAEA",
"tX c #7DDEED",
"yX c #64DEF3",
"uX c #65E1E8",
"iX c #6CE3EE",
"pX c #72E5EF",
"aX c #7AE6EF",
"sX c #6CE5F2",
"dX c #6AE6F6",
"fX c #6DEAF5",
"gX c #74E5F1",
"hX c #7CE2F1",
"jX c #73ECF3",
"kX c #79EBF4",
"lX c #72EFF9",
"zX c #6FF1F8",
"xX c #73F2F7",
"cX c #79F4F6",
"vX c #73F2F9",
"bX c #7AF5FA",
"nX c #7CFAFB",
"mX c #83C4D1",
"MX c #82E7F5",
"NX c #81F9FB",
/* pixels */
"                          o @ : , w w u C w w , % @ o                           ",
"                    + $ e Z y Z ;XXX6.#.A 4.R.uX#.t I V > +                     ",
"                + 3 G N.a.%.3.:.j.k.#.r u A f.h.>.3.>.=.H.` e #                 ",
"            X 3 %.U D P.T Y B %.4.3.r u U 9 1.>.t.V I T k.Y S %.e o             ",
"          @ V m.t.3.K./.T %.Y 9 P.l.;.w w } y.R.M B 1.T H.K.5.e.N.( $           ",
"        $ H m 5.U t -.1.7.B.$.V r.} f._.R.P.} 6.A I G.1.:.9.y Y 1.U G >         ",
"      # U 4 F 1.m =.j.C N $.:.Z y ..'.2X1X_.<.g F X.$.V r j.j.B -.) 1 P :       ",
"      H &.>.T B.B -.R.t.p.!.y.4.N _.OXz.R.XX=X| >.t.K.p.3.T.e.m u.%.4.1.) +     ",
"    : D 7.G %.*.$.>.-.0 %.a.g -.T.$Xl.:X:Xl.=XW.r.m ,.e.0 ..>.$.*.e.V e.S 3     ",
"    9 4 d 1.$.=.-.e.k.h.;.} 2 ,.J.OXl.l.z.h.+XJ.r.8 N ;.6.l.i.-.=.%.1.V 1 B     ",
"    M U :.u.e.$...M f.9  .4.6.Y.8 1.oXR.XXXXe.1 l.h.4.,.9 e...F %.5.G.3.$.L @   ",
"  + ~ M g 0 #.a.q H y.y 9 u f. .8 q I 9.e. .q 9 N f. .9 9 s.X.8 9.1.m m B _ $   ",
"  + ~ d H m m ,.O.M.B.B.C.C.C.B.B.B.m.q.*.u.N.m.B.B.B.C.B.B.B.7.<.Z t #.m ~ $   ",
"  @ d B Y Z -.:./._.=X=X1XoX@XoX$X_.#X^.H.@X/.@XoX7X$X%X$X=XOX(.1.:.U T ) D $   ",
"  # f 7 ) x.0.#.OXOX9X$X2X+X7X$X9X+X$X).T.$XoX;X$XeX=X7X=X;XOXOX>.7.x.&.n 7 :   ",
"  @ d ` L f M g 3.k.=.p.H.p.H.H.j.T.H.a.p.H.H.G.H.T.G.H.j.e.k.6.m J f L *.G *   ",
"  # ~ 7 8 q B 7 j.^.oX$X2X$X2X2XoX0X0X=X&X7X3X@X2X7X$X2X@X^.>XE.t B q g 7 ~ >   ",
"  = N.B.U././.&.T.dX3XiXfX3XdXfX7XbXfX8X=XsXzX9XfXbXiXfXwX2XwX=X:.`._.).K.Q.q   ",
"  1 V.8.) <.`.0.).yX7XsXzXuXzXfXeXNXvXrX8XjXbXiXlXbXiXvXiX7XdX=X9..Xi.) 9.Q.M   ",
"  < M.( L L ~.0./.dXiXxXbXjXbXbXpXNXcXtXrXcXnXaXcXNXkXnXkXqXdX8Xi..Xo.~ ) I.M   ",
"  < V.7.^ ( '.8.OXfXeXgXzXdXxXvXpXNXbXhXrXvXnXkXcXNXkXbXcXrXlX8Xw.[.<.O.7.Q.M   ",
"  1 V.9.o...~.q._.dX9XsXzXiXxXzXiXNXnXMXrXcXnXfXzXbXgXbXkX9XfX8Xw.'.:.O.7.I.j   ",
"  1 v.8.Z.<.U.0./.yXwXsXvXiXxXxXiXNXnXMXhXnXnXsXvXcXsXlXjX0XyX=X7.'.9.{.i.S.j   ",
"  1 V.i.9.9.~.0.(.2XeXeXfXeXfXxXeXcXnXkXhXcXcXiXvXvXeXfXiX8X0X#X7.~.Z.w.B.Q.j   ",
"  6 n.s.}.g.!.7.l.&X_.8XeX8XpXpXqXgXhXqXqXpXgXrXgXkX8XeX;X&X-XR.7.~.Y.mXY.S.v   ",
"  6 n.s.}.}.!.M.k.(.=X*X;X9X7XiXjXeXgX0X<XdXeXiXiXqX9X9X&X;X|.R.n.~. XmX{.I.F   ",
"  4 b.o. .d.Y.0.B./.qX1X=XdX1XyXdXeXjXyX0XlXwXlXjX7XfX;X=XrX&XL.0.!.{.2...S.v   ",
"  6 b.w.2.d.Q.` ) u.p.G.K.J./..X`..X,X'.'.,X,X[.[.]././.E.L.k.r.o.~.Z.s.9.V.v   ",
"  6 v.^ 2.o.I._ u.W.K.^.@X/.<X2X[.0X0X4X|.6X3X>X2X<X^.1X).K.).E._ I.<.s.Y v.v   ",
"  4 0.F 5 h S._ I.<X].5XuX#XwXyX@XdXyX|.|.6XdX,X3XyX[.wX0X(.6X|.` S.F 5 f w.c   ",
"  1 +._ h D S.' L.,X[.7XyX#XeXwX#XwX5X~.(.#XyX*X2X3X_.3X6X_.6X|.( A.| h P b.j   ",
"  < +.^ K j A.~ L.,X!.#X1X/.1X1X[.2X4X~.U.].yX@X1X3X(.1X5X/.,X(.o.A.K K P 0.j   ",
"  < +.^ b J w./ f.`.(.*X2X(.0X6X_.7X4XY.L.'.0X[.,X6X(.<X5XE..X(.P b.| b D [ h   ",
"  = Q ' v.b.n.K u..X|.*XqX_.8X5X_.5X[.Z.Z./.2X_.@X6X(.5X4X(.,X(...v.A.D.' / ;   ",
"  ; p E x.v.b.c w..X~.[.,XU.[.|.E.4X`.i.w.I..XK.^.[.W.`.`.K.`.B.x 0.b.v.! l ;   ",
"  - p k [ c.b.J 9.I.B.G.K.B.!.J.B.J.G.8.1.N.W.B.J.I.G.J.G.Z.I.q.b m.m.{ E p ; . ",
". p p E c.C.C.+.` 8.,.d.f.s.d.i.9.w.&.P P 7.M.w.a.Z.i.d.f.i.w.` ] V.F.V.! a p & ",
"X i i p z E W z s x Q W / W / W ! ! E x k E W E ! ! Q W W Q x k z ! ! z p i i & ",
"  i p R ] D.D.@.E / ' ' ' ] ' +.{ ' ] ' / { ' +.] ' +.' ' ' / / +.F.D.@.E a a & ",
"  - i i b ( ) ~ s h c c h c h h c j j h 0 j h j h f h h j j h 5 D ( ) J s ; - O "
};
