/* XPM */
static char *dooropen_copy_21677548983[] = {
/* columns rows colors chars-per-pixel */
"40 40 238 2 ",
"   c #000000",
".  c #080A0D",
"X  c #0E0E17",
"o  c #0C1518",
"O  c #111D1F",
"+  c #0E1D20",
"@  c #121223",
"#  c #1A1C36",
"$  c #152329",
"%  c #192C37",
"&  c #1B313A",
"*  c #1D363B",
"=  c #1D3B46",
"-  c #1F3D48",
";  c #222346",
":  c #213B44",
">  c #203848",
",  c #232658",
"<  c #263E55",
"1  c #1C2B63",
"2  c #202A67",
"3  c #263A6B",
"4  c #2A3879",
"5  c #26434C",
"6  c #274758",
"7  c #27525B",
"8  c #2C446B",
"9  c #2A496A",
"0  c #295569",
"q  c #35556C",
"w  c #2E4675",
"e  c #2D4E73",
"r  c #314573",
"t  c #324F74",
"y  c #2D5577",
"u  c #2B547D",
"i  c #345473",
"p  c #355B72",
"a  c #345A7A",
"s  c #2E6074",
"d  c #366475",
"f  c #35637C",
"g  c #3A6878",
"h  c #587676",
"j  c #2B368B",
"k  c #2B3C95",
"l  c #273C9B",
"z  c #313891",
"x  c #2E568C",
"c  c #2C5A88",
"v  c #335E85",
"b  c #33588A",
"n  c #2E4696",
"m  c #304899",
"M  c #345A91",
"N  c #335B96",
"B  c #356484",
"V  c #356984",
"C  c #3C6984",
"Z  c #33648B",
"A  c #37678A",
"S  c #39668B",
"D  c #396C8C",
"F  c #35718F",
"G  c #3C758A",
"H  c #2E6793",
"J  c #366392",
"K  c #396495",
"L  c #366A95",
"P  c #3B6C93",
"I  c #34649C",
"U  c #366B9D",
"Y  c #3A6C9D",
"T  c #367293",
"R  c #3C7493",
"E  c #3B7996",
"W  c #33719C",
"Q  c #3B749B",
"!  c #3C7C9B",
"~  c #2D4EA5",
"^  c #324DA1",
"/  c #2F56A7",
"(  c #3659A8",
")  c #346BA3",
"_  c #366AA5",
"`  c #3B74A5",
"'  c #3C7DA3",
"]  c #3A78AA",
"[  c #3A6DB2",
"{  c #3968B5",
"}  c #3E7BBA",
"|  c #457989",
" . c #446F93",
".. c #477993",
"X. c #417499",
"o. c #437C9A",
"O. c #406FA2",
"+. c #437AA7",
"@. c #437DA6",
"#. c #4278B6",
"$. c #3C78C4",
"%. c #437DC2",
"&. c #3D8299",
"*. c #3C82A4",
"=. c #3C87A8",
"-. c #3E87BC",
";. c #3D90B9",
":. c #578A8D",
">. c #43849C",
",. c #45889A",
"<. c #5A8D94",
"1. c #5C9393",
"2. c #5B9598",
"3. c #63888B",
"4. c #6A8E8E",
"5. c #728E8E",
"6. c #74908F",
"7. c #668F91",
"8. c #659A9C",
"9. c #689899",
"0. c #709190",
"q. c #4384A3",
"w. c #498CA3",
"e. c #4383AC",
"r. c #448DAB",
"t. c #4988A9",
"y. c #548DA3",
"u. c #4293AD",
"i. c #4B95A9",
"p. c #4B95AE",
"a. c #5597A5",
"s. c #4585B3",
"d. c #448CB2",
"f. c #4B89B3",
"g. c #4383BB",
"h. c #458BBB",
"j. c #4D8FBB",
"k. c #4692B4",
"l. c #4A95B4",
"z. c #459AB5",
"x. c #4C9BB4",
"c. c #4493BD",
"v. c #4B95BB",
"b. c #469BBC",
"n. c #4B9BBC",
"m. c #5497B8",
"M. c #649CB6",
"N. c #4EA3A8",
"B. c #55A9AC",
"V. c #4BA3BA",
"C. c #57A6BB",
"Z. c #59B5BE",
"A. c #3F8AC3",
"S. c #4382C2",
"D. c #4984C3",
"F. c #468CC5",
"G. c #4B8DC4",
"H. c #4B8CC9",
"J. c #4595C4",
"K. c #4494C6",
"L. c #4C94C3",
"P. c #4D9AC3",
"I. c #4D96CA",
"U. c #469BC9",
"Y. c #4D9BCB",
"T. c #5299C7",
"R. c #529CCB",
"E. c #448BD5",
"W. c #4594D5",
"Q. c #4B95D4",
"!. c #4DA6C5",
"~. c #49A9C5",
"^. c #4DA5CC",
"/. c #4DAACC",
"(. c #54ACC4",
"). c #53A4CC",
"_. c #58A5C8",
"`. c #53ACCC",
"'. c #4DB0CD",
"]. c #54B1C6",
"[. c #58B6CA",
"{. c #4DA6D2",
"}. c #53A4D2",
"|. c #55AAD2",
" X c #5AACD5",
".X c #56AED9",
"XX c #55B3D1",
"oX c #59BBD4",
"OX c #59B6D9",
"+X c #62B8C4",
"@X c #78B3C9",
"#X c #7BBCD3",
"$X c #55B0E4",
"%X c #5BC4D5",
"&X c #5BCCD5",
"*X c #5BC7D8",
"=X c #5BC2DC",
"-X c #64C5D9",
";X c #64CCDE",
":X c #6BCDDD",
">X c #76CFD5",
",X c #67D2DE",
"<X c #5EC1E1",
"1X c #5CCBE3",
"2X c #5CD3E5",
"3X c #62C7E5",
"4X c #61CDE3",
"5X c #6BCEE2",
"6X c #65D3E4",
"7X c #67D7E7",
"8X c #6BD5E5",
"9X c #66DDED",
"0X c #6ADDEB",
"qX c #75DBE6",
"wX c #73DDEA",
"eX c #73DDF0",
"rX c #6BE2EF",
"tX c #73E3EB",
"yX c #7BE3EC",
"uX c #6DE5F1",
"iX c #6FE9F2",
"pX c #79E7F3",
"aX c #73EAF3",
"sX c #7CEAF2",
"dX c #7FF1F5",
"fX c #83C4D0",
"gX c #89EAEE",
"hX c #80E7F0",
"jX c #84ECF3",
"kX c #8AEEF3",
"lX c #85F2F6",
"zX c #8DF4F7",
"xX c #95F4F6",
"cX c #98F7F8",
"vX c #95FAFD",
"bX c #9CF9FA",
"nX c #A7FAFA",
"mX c #A2FAFC",
/* pixels */
"                            o $ & : : 5 7 5 = * % O .                           ",
"                    o & 0 f d D &X[.u.w.>.w.Z.2Xo.d V s = o                     ",
"                + 7 F c.V.u.q.' ].].,.d d G ].].q.q.u.K.U.W 0 $                 ",
"            . 0 *.T Z ).! Q F p.,.u.g g &.d >.G x.R T ! ~.W H *.0 o             ",
"          $ D K.z.u.!.`.E *.R a ].Z.| q q | V.%XD A *.Q (.^.p.z.K.Q &           ",
"        : R Z z.E f q.p.s.^.*.V x.G V.].C.C...p.R T /.d.u.k.f E l.W Y 6         ",
"      & E t Z r.V r.z.G V ' q.R C ..|.4X2XXXo.S P ! @.V g z.u.R >.! e X.5       ",
"    o Q ' >.E c.B ;.[.x.v./.n.>.f OX&XZ.%X&X=XZ o.z./.b.r./.V.B k.*.>.q.*.$     ",
"    6 U s.T e.;.*.&.w.v =.V.P f./.1XB.>X>XB.:X'.x.S f.z.v o.>.&.;.z.E l.U 0     ",
"    A 9 v =.&.z.&.v.x.p.>. .t >.{.*XN.Z.+XN.%X}.l.q C >.i.V.n.>.=.=.q.T e R o   ",
"  o L F *.b.b.e.o.S C.g >.i.<.(.a d.%XZ.+X%Xn.i C.2.w.w.f x.! P r.z.(.r.! Q %   ",
"  $ ` Z v y *.l.a D x.p i  ._...i p X.v.v.o.a i C C.! i p p.E i d.d.B f L ] >   ",
"  % ) c D A f r.+.v.L.P.P.L.n.L.L.v.v.h.g.h.K.c.L.P.T.!.L.P.L.s.e.R a ' v ) <   ",
"  % c L Q F >.d.oX=X4X:X8Xa.= 5 = : : = = - = = = : a.,X:X8X*X=Xk.,.E o.' N <   ",
"  & c e ` F.h.n.2X*XwX7XsX:.                        :.lXtXrX6X7Xx.h.F.=.c y 6   ",
"  % c ] Y u J *.~.~.(.&X7X|                         :.tXrX%X'.'.=.K c U -.H 6   ",
"  = ) u y a Z z.1X2X,XaXjXh                         4.xXlX0X7X2XC.A f v c ) 6   ",
"  < L.n.`.XX|.P.2XrXqXvXzXh                         4.mXvXsXrXrX~.OXoXXX~.^.B   ",
"  8 I.-.' w..XU.9XrXyXvXcXh                         0.nXbXkXaXrX^.OXv.=.d.}.J   ",
"  8 L.] I L  XU.rXaXyXcXbXh                         0.nXmXzXaXaX|.OX' ) ` }.J   ",
"  8 I.s.[ X. X^.9XrXtXvXnXh                         6.nXbXjXrXaX^.OXt.+.s.}.J   ",
"  8 I.s.]  . X{.9XuXtXvXnXh                         6.nXmXjXuXrX`.OX@.s.h.R.J   ",
"  8 G.f.).t.|.Y.9XrXwXvXmX3.                        6.nXbXsXuXuX^. Xt._.j.R.J   ",
"  3 I.j.f.f. XU.4X0X8XkXbX0.                        5.nXbXyXuX7XU.OXT.j.L.}.K   ",
"  8 L.m.#XM._.Y.-X6X:XgXgX7.                        7.xXgXqX8X,XU. X_.fX_.}.Y   ",
"  r G.m.@X@X|.I.+X8XwXyXzX2.                        1.cXgXyXtX:XT. X#XfXM.}.K   ",
"  r G.@.>.m.}.G.].6X0XwXxX1.                        9.bXjXtX0XoXG. X_.y.o.R.K   ",
"  r G.f.y.m.}.g.n.^.`.6XtX1.                        :.sXtX%XXX).h. XR.m.f.I.K   ",
"  r D.Y f.O.R.F.oX1X-XuXlX8.                        7.kXsX7X1X1XK.R.@.f. .L.K   ",
"  r D.K r M R.h.4X4X5XlXkX9..                       7.lXlXwX8X9Xb.T. .w b G.N   ",
"  r g.] M M R.A.1X1X5XpXsX8.                        7.jXsXwX4X9XG.T. .M Y D.M   ",
". r #.) I M I.-.oX3X4XaXyX8.                        3.jXdX0X2X1Xg.I.K I _ s.b . ",
"  r #._ I Y j.} -X4X:XsXhX8.                        3.kXlXwX7X7Xg.G.O.I I #.b . ",
". 3 ^ { F.T.H._ XX;X:XsXhX8.                        <.jXjXqX5X3XO.G.I.I.[ ( j o ",
"X 3 n m #.F.h.N !.=X-XeXpX8..                       :.jXsX8X3XOXN S.F.%./ n j X ",
"X 4 k ~ $.U.L.) s.).`.4X5X<.                        :.0X7X%XXXb.) K.K.A.( k 4 @ ",
"; z k ~ %.F.G.} _ G.T.OX$X..                        | 3X<X XY.] [ F.I.D.( k j , ",
"; j j k ^ ( { m m { { $.W.D                         v $XE.%.{ m ~ ( ( ^ l j j , ",
"# z z ~ $.E.W.$._ %.G.I.3Xw..                       | 3X}.Q.H.[ %.Q.W.$./ l l , ",
"@ , 2 4 x b v u 3 w e i d 5                         : f a e w 3 u v Z u 3 1 , # "
};
