/* XPM */
static char *leftleft1677509771[] = {
/* columns rows colors chars-per-pixel */
"40 40 203 2 ",
"   c None",
".  c #010102",
"X  c #0C0302",
"o  c #130502",
"O  c #1C0502",
"+  c #140A02",
"@  c #1B0C02",
"#  c #1B1108",
"$  c #1C1303",
"%  c #181C1C",
"&  c #230502",
"*  c #280702",
"=  c #230C01",
"-  c #2C0902",
";  c #320B02",
":  c #3D0C02",
">  c #3F0304",
",  c #241201",
"<  c #2B1203",
"1  c #2A1C02",
"2  c #221509",
"3  c #271A09",
"4  c #341402",
"5  c #3C1401",
"6  c #371903",
"7  c #3E1901",
"8  c #2C1E18",
"9  c #3A2803",
"0  c #2B271C",
"q  c #382819",
"w  c #2D2403",
"e  c #131C35",
"r  c #302B3E",
"t  c #4B0E02",
"y  c #540000",
"u  c #5C0304",
"i  c #421303",
"p  c #4C1502",
"a  c #431B02",
"s  c #4B1C01",
"d  c #4A1009",
"f  c #521302",
"g  c #5C1C03",
"h  c #551806",
"j  c #680807",
"k  c #6F1108",
"l  c #611C05",
"z  c #78150A",
"x  c #7C0D0C",
"c  c #4D2304",
"v  c #4B260C",
"b  c #5D2503",
"n  c #5D2A06",
"m  c #542604",
"M  c #4A2C14",
"N  c #532D13",
"B  c #5C3313",
"V  c #5C381B",
"C  c #4D330A",
"Z  c #632403",
"A  c #672C05",
"S  c #792B08",
"D  c #643C04",
"F  c #6A3307",
"G  c #713304",
"H  c #743B0E",
"J  c #773A06",
"K  c #6B3B15",
"L  c #683715",
"P  c #783F14",
"I  c #68173B",
"U  c #4B3524",
"Y  c #513723",
"T  c #5E3831",
"R  c #7C2039",
"E  c #6D4305",
"W  c #764505",
"Q  c #7D4805",
"!  c #6C421E",
"~  c #74451D",
"^  c #7C461B",
"/  c #7B4215",
"(  c #5D4430",
")  c #7C4D23",
"_  c #714A27",
"`  c #774F32",
"'  c #000045",
"]  c #132348",
"[  c #3A3547",
"{  c #0E1363",
"}  c #252F61",
"|  c #512445",
" . c #43356C",
".. c #7B5C54",
"X. c #6E7071",
"o. c #7C716E",
"O. c #910E0D",
"+. c #8A1312",
"@. c #871311",
"#. c #9C1515",
"$. c #951315",
"%. c #8A160C",
"&. c #B90B0A",
"*. c #AC1010",
"=. c #803C0F",
"-. c #8E3E2D",
";. c #C1110C",
":. c #C41515",
">. c #DA1D1B",
",. c #DA201E",
"<. c #D2393A",
"1. c #854B05",
"2. c #884F06",
"3. c #8B5306",
"4. c #8C5807",
"5. c #925A0B",
"6. c #834A1B",
"7. c #8A4917",
"8. c #914F1B",
"9. c #8C5618",
"0. c #95551D",
"q. c #98551B",
"w. c #926004",
"e. c #A97517",
"r. c #B37818",
"t. c #804F22",
"y. c #8B5427",
"u. c #955C29",
"i. c #9A5621",
"p. c #8B5034",
"a. c #AF4C3C",
"s. c #9B6637",
"d. c #87633F",
"f. c #A76429",
"g. c #B16B2B",
"h. c #A26B3C",
"j. c #AA6731",
"k. c #B4733B",
"l. c #B9743A",
"z. c #B36F3C",
"x. c #C0783C",
"c. c #833B73",
"v. c #8F4A49",
"b. c #896346",
"n. c #9B6D45",
"m. c #9D7351",
"M. c #A7754D",
"N. c #B47847",
"B. c #A5724B",
"V. c #C47F48",
"C. c #CB6D66",
"Z. c #B68018",
"A. c #BF9432",
"S. c #C38A1E",
"D. c #D59926",
"F. c #DCA727",
"G. c #BD8356",
"H. c #B99A58",
"J. c #B48941",
"K. c #B28B6A",
"L. c #C6834B",
"P. c #D28C4E",
"I. c #C38553",
"U. c #CA8A58",
"Y. c #D18F56",
"T. c #D6925B",
"R. c #DB965B",
"E. c #C89955",
"W. c #CB9366",
"Q. c #DF9960",
"!. c #D19565",
"~. c #C19E73",
"^. c #E39E64",
"/. c #CFAF77",
"(. c #CEB17F",
"). c #E6A268",
"_. c #F2AD74",
"`. c #F6B077",
"'. c #FAB47C",
"]. c #FFB97F",
"[. c #F7B279",
"{. c #ECA670",
"}. c #283C86",
"|. c #1C29A5",
" X c #5B3F89",
".X c #4C5DBC",
"XX c #0D12FF",
"oX c #283DFF",
"OX c #3142CC",
"+X c #2F44FF",
"@X c #4040FB",
"#X c #565FFF",
"$X c #BC9E84",
"%X c #BAA69A",
"&X c #A18DB1",
"*X c #B1B7BB",
"=X c #D6B69B",
"-X c #C6A98E",
";X c #FFBB83",
":X c #FEBF8B",
">X c #E4B894",
",X c #E7C3A6",
"<X c #CBCBCC",
/* pixels */
"                                                                                ",
"                                                                                ",
"                                  + @ 3 0 0 3 @ + +                             ",
"                              X + c 2.Z./.-XZ.Q Q m o X                         ",
"                            . O a D D l k k k S 2.1.G 5 X                       ",
"                        O , 1 1 1 , O h #.#.#.O.k S Q Z i o                     ",
"                    @ 9 9.J.H.H.A.r.3.n w 3 @ d $.+.z z Z i .                   ",
"                  w 9.D.D./.-X%XE.D.e.3.4.2.1.D 1 d +.@.z s O                   ",
"                , e.F.5.Z g p 4 7 5 s Z l G 3.3.3.E w d j ; : .                 ",
"              . b S.5.4 * * X . . . o * * 5 Z g F 2.3.W 9 3 O .                 ",
"                < A 4 X . . . . = 7 O . . X * ; f g A 2.3.W < .                 ",
"                . o X . 4 + < B 6.q.^ v @ . . X O - f g Z 2.Q 4                 ",
"                . . . 6 6 X + ^ P.).^.Q.h.L = . . X ; t t Z 2.E .               ",
"                  . . @ 7 K n.!.`.;X^.k.K 3 + . . . . - t t b H a .             ",
"                  . . . m v q s.{.;X_.Q.W.n.) K 4 . . . * t f G b .             ",
"                  .   . s B.%Xb.L.;X;Xm.q B q.g.6.4 . . . & p g n .             ",
"                      . ~ i.Y _ R.;X].=X*XK.8.0.q.a . . X . o = b .             ",
"                    X . t.M . ! ).;X;XI.U o.-Xf.~ X . . o : i c +               ",
"                  . ) H 0.-X<X=X'.].;Xb.. X.=Xg.! , v . o : X +                 ",
"                . t.^.Y _ Q.:X;X;X;X].,X<X$Xj.g.! ( L.a . X                     ",
"                . G.j.u./ 0.Q.;X].;X;X:XN.P H 7.L.T.i.a . .                     ",
"                . y.^._.Y a 6.T._.`.`.[.Y.f.f.7./ y.a + # +                     ",
"                . _ k.8.Z @ X a 6.u.u.u.u./ Z a + 3 M i.l.g.K # #               ",
"                  . M.P.M # K V 8 + X 8 % o * ; H N.W.W.!.{._.N.j.2             ",
"                  . 7 I.k.k.T.!.n.a j C.b.x ;.j ; 7 . . O ^ _.;X`.h..           ",
"                    . B M.G.y.= . u <.p.@.>.:.*.u .       3 l.;X;XN..           ",
"                        . .     & O.C...+.,.,.:.u .       + L T.N.a .           ",
"                              . u &.a.v.*.,.&.&.u .         o a 4 .             ",
"                                t y v.v.y R c.c.| .           .                 ",
"                                . ]  XI T .XoX+X|.X O                           ",
"                            .     } }.[ d.&X@XXX|.= p O                         ",
"                          O v q . . U N.H  .#XOXr n 7.i .                       ",
"                        & p =.n ` m.I.u.3 ' { e 9 l.L.s .                       ",
"                      . a 1.4.3.0.^.L.m         2 _ k.s .                       ",
"                        @ s J 5.w.q.N             # 3 @                         ",
"                          X + a F 3.c                                           ",
"                              X + $ $                                           ",
"                                                                                ",
"                                                                                ",
"                                                                                "
};
