/* XPM */
static char *fotor_2023_2_26_21_32_26__1_1677443588[] = {
/* columns rows colors chars-per-pixel */
"40 40 195 2 ",
"   c None",
".  c #030304",
"X  c #090604",
"o  c #0C0905",
"O  c #0B0B0A",
"+  c #130C05",
"@  c #110E09",
"#  c #1B0A07",
"$  c #12100A",
"%  c #1B140A",
"&  c #161006",
"*  c #090813",
"=  c #140C16",
"-  c #131212",
";  c #181619",
":  c #2B0C04",
">  c #280706",
",  c #340E04",
"<  c #390E04",
"1  c #350B0B",
"2  c #231405",
"3  c #2D1805",
"4  c #221A0D",
"5  c #2B1605",
"6  c #331B05",
"7  c #361A08",
"8  c #291E11",
"9  c #261D13",
"0  c #2F0D12",
"q  c #3C2109",
"w  c #3E2E05",
"e  c #3F3107",
"r  c #2D2012",
"t  c #2B241D",
"y  c #342414",
"u  c #392B1A",
"i  c #181C3B",
"p  c #0A0C22",
"a  c #1C233A",
"s  c #363636",
"d  c #222537",
"f  c #4A1404",
"g  c #411104",
"h  c #551504",
"j  c #641A04",
"k  c #691E04",
"l  c #641704",
"z  c #432206",
"x  c #4A2605",
"c  c #4F2906",
"v  c #5A2E07",
"b  c #522A06",
"n  c #4D3B09",
"m  c #5D3007",
"M  c #412D17",
"N  c #4B341C",
"B  c #463119",
"V  c #6B2306",
"C  c #6D230A",
"Z  c #742B06",
"A  c #693507",
"S  c #673509",
"D  c #723907",
"F  c #773B0A",
"G  c #593E21",
"H  c #41352A",
"J  c #7C410D",
"K  c #775909",
"L  c #704C0C",
"P  c #7E610A",
"I  c #594736",
"U  c #7C562B",
"Y  c #614425",
"T  c #29304C",
"R  c #242E50",
"E  c #474748",
"W  c #765D46",
"Q  c #6D5742",
"!  c #AC0B0B",
"~  c #AD1010",
"^  c #BA1211",
"/  c #843E11",
"(  c #843E0A",
")  c #BA2625",
"_  c #B22828",
"`  c #DC2E2B",
"'  c #D33835",
"]  c #E02F2C",
"[  c #E13B38",
"{  c #854207",
"}  c #854309",
"|  c #8C4A0A",
" . c #88480B",
".. c #8D5209",
"X. c #955A09",
"o. c #924E11",
"O. c #925214",
"+. c #9A5516",
"@. c #985919",
"#. c #864213",
"$. c #86650A",
"%. c #9D640A",
"&. c #A36C0C",
"*. c #A87D0B",
"=. c #A26818",
"-. c #A57511",
";. c #9D5E23",
":. c #875F32",
">. c #9F6128",
",. c #8D6334",
"<. c #996B37",
"1. c #9E703C",
"2. c #A4672C",
"3. c #AC7032",
"4. c #B37434",
"5. c #B47437",
"6. c #A96A31",
"7. c #8E7258",
"8. c #AA7C49",
"9. c #B27F46",
"0. c #9C7E60",
"q. c #E14643",
"w. c #B2840F",
"e. c #AE8615",
"r. c #B28410",
"t. c #B78C19",
"y. c #BB931E",
"u. c #B88024",
"i. c #C49A26",
"p. c #C68E30",
"a. c #C38B2E",
"s. c #DAAD3A",
"d. c #DBB33B",
"f. c #CCA12B",
"g. c #BC8346",
"h. c #BF874A",
"j. c #AF8E6A",
"k. c #B28F6E",
"l. c #B49171",
"z. c #C58E52",
"x. c #CC9254",
"c. c #CD985A",
"v. c #D49A5C",
"b. c #DFB744",
"n. c #E8BC45",
"m. c #C79967",
"M. c #D39D63",
"N. c #D59C68",
"B. c #C39B75",
"V. c #C69E78",
"C. c #D5A26B",
"Z. c #D7A877",
"A. c #E8B37B",
"S. c #ECC54F",
"D. c #EBC654",
"F. c #EDC95F",
"G. c #F1CA54",
"H. c #EDCF77",
"J. c #0707CF",
"K. c #1418F0",
"L. c #181DEE",
"P. c #262CFF",
"I. c #6072C5",
"U. c #677BD4",
"Y. c #5B6FFC",
"T. c #657BE4",
"R. c #657BFD",
"E. c #6E85E7",
"W. c #718AED",
"Q. c #6980F1",
"!. c #7D96F8",
"~. c #AEAFB0",
"^. c #DBB080",
"/. c #E9B685",
"(. c #F5C395",
"). c #F9C594",
"_. c #FECB9C",
"`. c #ECD385",
"'. c #DFC7AC",
"]. c #FECEA1",
"[. c #F4CDAA",
"{. c #E6D5B8",
"}. c #FFDBBA",
"|. c #B5B7E5",
" X c #A8AAEE",
".X c #DBC7C7",
"XX c #DBCEC9",
"oX c #D9D6D5",
"OX c #D7D7D7",
"+X c #D0CCC8",
"@X c #E2D7C9",
"#X c #E3D8D5",
"$X c #E5C8C8",
"%X c #D0CFE2",
"&X c #E2E0E7",
/* pixels */
"                                                                                ",
"                                                                                ",
"                                                                                ",
"                                                                                ",
"                                  o $ - $ $ o o X                               ",
"                              X 2 @.F.@XD.e.*...V 2 X                           ",
"                            3 ..e.S.G.G.e.w...J { F V :                         ",
"                          5 ..$.& % 4 % % % & % & + f j :                       ",
"                          $ % y O.r.S.S.S.S.S.S.y.X.q o o o                     ",
"                      O n f.H.oX{.S.r.w.r.r.w.w.n.y.s.i.X.x X o                 ",
"                  . z u.`.{.s.#.C C k j V j k j k k ( | %.*.%.c .               ",
"                . x p.d.&./ V j j h X X + . X X h l j l V k | &.v .             ",
"              . c p.s.X.l l f . X o . + J % . . o o X g j j l { &.m .           ",
"              . L &.F k g X X . & D @  .g.g.8 . A 3 . X . < l k  .K X           ",
"            . L %.Z < . . . . . 2 D % z.).).z.8 . A 6 . . . , l Z X.K .         ",
"            . L | : . X . X X 2 D o t /._._.).z.4 S | 6 . . X : l { $..         ",
"            . m x . , < . 3 S 8 <.% 9.)._._._.z.8 . ,.N . < < . : { P .         ",
"              . c Z , . . 6 S 2 J - t z._._.c.u - . ,.N . . < < e K X           ",
"                X X . . . 3 A y m.OXXX_._.]._.@XOXT D z . . : < X $             ",
"                    . . O 7 +.m.XXJ t (._._._.2.4 ~.Z.B . o X o                 ",
"                      . I C.+.C.+X$ t (._._._.H @ ~.Z.M 7.W .                   ",
"                        N 5.+.c.[.OX#X]._.]._.@XoX[.C.B U Y .                   ",
"                        6 @.3.+.c._.]._._._._.v.2.o.| 6.;.z                     ",
"                          X 6 { O.x.)._._._._.(.x.o.} q X                       ",
"                              o 2 } O.9.g.g.g.O. .5 X                           ",
"                                O o # % ; ; # + + o                             ",
"                              y 1.# ~ ' .XXX_ ! > ,.B                           ",
"                            2 2.V.> ` ] ) ) ` ^ > j.5.,                         ",
"                            y 1.0 ~ ] [ $X#Xq.^ ! 1 ,.N                         ",
"                          X I V.# ! ] ] ) ) ` ^ ! > j.Q X                       ",
"                        B N./.1.. 0 ~ ' $XXX_ ! 1 . ,./.C.G                     ",
"                        I }.{.,.i U.= = p ; = * I.R U '.}.W .                   ",
"                        B C.l.d !.R.K.T.K.R.E.L.Y.!.T j.Z.G                     ",
"                          @ o s |.P.E.i T.E.i U.P. XE . $                       ",
"                                s OX%XJ.p * J.|.&XE                             ",
"                              X t 8.= *     * * 8.M X                           ",
"                          X 7 | ;.Z.O         . l.3. .q X                       ",
"                        6 @.c./.5.J .         . S 4.A.C.;.z                     ",
"                        w i.b.-.D o             X S &.d.f.n                     ",
"                          $ $ o o                 o o $ + o                     "
};
