/* XPM */
static char *rightright1677509771[] = {
/* columns rows colors chars-per-pixel */
"40 40 200 2 ",
"   c None",
".  c #010102",
"X  c #0B0402",
"o  c #0E0802",
"O  c #120601",
"+  c #1B0502",
"@  c #130B02",
"#  c #1D0C02",
"$  c #171103",
"%  c #1A1004",
"&  c #1B1108",
"*  c #050912",
"=  c #220602",
"-  c #290401",
";  c #210C02",
":  c #2A0A02",
">  c #310203",
",  c #330B02",
"<  c #390C02",
"1  c #241404",
"2  c #2C1706",
"3  c #331602",
"4  c #351804",
"5  c #3C1B04",
"6  c #3A230D",
"7  c #35210F",
"8  c #3A2411",
"9  c #332417",
"0  c #2B220C",
"q  c #00002C",
"w  c #0C112E",
"e  c #251E3C",
"r  c #362E37",
"t  c #440D02",
"y  c #4A0E02",
"u  c #460D09",
"i  c #550000",
"p  c #4C1202",
"a  c #441D03",
"s  c #4E1A02",
"d  c #431102",
"f  c #5D1105",
"g  c #571C03",
"h  c #4E1311",
"j  c #690C08",
"k  c #7E0C0C",
"l  c #760305",
"z  c #74130B",
"x  c #631407",
"c  c #45260D",
"v  c #542404",
"b  c #5B2603",
"n  c #52290C",
"m  c #5C2C04",
"M  c #49310E",
"N  c #4C2E13",
"B  c #492812",
"V  c #502A10",
"C  c #553214",
"Z  c #5B3414",
"A  c #52371A",
"S  c #632403",
"D  c #652904",
"F  c #692A04",
"G  c #662B06",
"H  c #702E04",
"J  c #683708",
"K  c #753C05",
"L  c #78390A",
"P  c #753706",
"I  c #653511",
"U  c #633A18",
"Y  c #6C3B15",
"T  c #713B11",
"R  c #7E3E10",
"E  c #503926",
"W  c #6A3034",
"Q  c #7A4705",
"!  c #69411D",
"~  c #76461C",
"^  c #694605",
"/  c #5D432D",
"(  c #5D4537",
")  c #734625",
"_  c #694D36",
"`  c #795030",
"'  c #764831",
"]  c #151F43",
"[  c #070B55",
"{  c #172055",
"}  c #1F1872",
"|  c #502C57",
" . c #54377D",
".. c #4D575B",
"X. c #57524D",
"o. c #5E656B",
"O. c #6A6967",
"+. c #81150D",
"@. c #861311",
"#. c #911513",
"$. c #A80707",
"%. c #B60F10",
"&. c #AE1616",
"*. c #B91918",
"=. c #B71615",
"-. c #803E0D",
";. c #A03232",
":. c #BA3831",
">. c #CB1816",
",. c #D91F1D",
"<. c #E01F1E",
"1. c #DB201E",
"2. c #D23D3D",
"3. c #C8352B",
"4. c #854B0A",
"5. c #8B5506",
"6. c #8D5C06",
"7. c #8C510D",
"8. c #925E06",
"9. c #915B09",
"0. c #8E4A14",
"q. c #874A1D",
"w. c #8D4E1C",
"e. c #874616",
"r. c #95511A",
"t. c #946207",
"y. c #9B6A09",
"u. c #A16E0F",
"i. c #A76816",
"p. c #88552B",
"a. c #9E5A20",
"s. c #985B29",
"d. c #875D38",
"f. c #925836",
"g. c #824A22",
"h. c #A15E2A",
"j. c #9F602C",
"k. c #8C613B",
"l. c #A7632A",
"z. c #AD692C",
"x. c #BA7F21",
"c. c #A96C3C",
"v. c #A26535",
"b. c #B8753C",
"n. c #C17939",
"m. c #965644",
"M. c #9B6F48",
"N. c #896242",
"B. c #A36D40",
"V. c #B06F40",
"C. c #B67745",
"Z. c #A77852",
"A. c #947C72",
"S. c #A0756F",
"D. c #C27E41",
"F. c #C78D27",
"G. c #E4AB32",
"H. c #E8AF33",
"J. c #BF8354",
"K. c #B4927A",
"L. c #C3824D",
"P. c #C98348",
"I. c #C58351",
"U. c #CA8A52",
"Y. c #C58B58",
"T. c #D68F54",
"R. c #CE915F",
"E. c #D69156",
"W. c #D99356",
"Q. c #D6935A",
"!. c #D0894B",
"~. c #CF976A",
"^. c #E49D62",
"/. c #CDA07B",
"(. c #DDB66C",
"). c #EAA56B",
"_. c #F1A96E",
"`. c #F1AC73",
"'. c #FBB57D",
"]. c #FEB97F",
"[. c #E2A573",
"{. c #2A3989",
"}. c #725DBE",
"|. c #101BFF",
" X c #1721FF",
".X c #2633FF",
"XX c #505EC6",
"oX c #666FDB",
"OX c #4E4FFB",
"+X c #4350FF",
"@X c #988C83",
"#X c #A89B91",
"$X c #A7928C",
"%X c #DBBC80",
"&X c #FFBB82",
"*X c #EBB386",
"=X c #FCC394",
"-X c #FFCDA3",
";X c #EACCAA",
":X c #F9DAC0",
/* pixels */
"                                                                                ",
"                                  o o @ @ o o X                                 ",
"                              o 9 K Q 6.6.K F s # X                             ",
"                            O ' ;XF.L f f f S D b t .                           ",
"                          O I G.F.f +.*.*.*.u o $ $ $ @ O                       ",
"                        X s Q f z *.z @ 1 0 T 4.u.y.y.t.J % O                   ",
"                        O S z &.@.% A g.x.H.G.G.G.y.t.8.t.5.m $                 ",
"                      . t t #.# M i.(.%Xi.b F b b b b D D H t.^ o               ",
"                      . , # 2 7.G.x.S D s < < O . . . < < d F H 5 .             ",
"                      . # K t.5.S g t < + . . @ # . . . . X p F 4               ",
"                      ; L 5.S S y < = . . O 2 J -.6 & X # . O = .               ",
"                    . J 5.S y y : . . O 2 ) C.P.P.z.v o c # . . .               ",
"                    ; Q F p y : . . . ; I V.[.'.&XU./ 8 : 5 . .                 ",
"                  . b H p y : . . X 2 6 N ` b.`.&X).Z.~ m . X .                 ",
"                  . v S p : . . X c a.l.v.Z.[.&X&Xs.X./ m . . .                 ",
"                  . v 3 : . . . # 0.l.0._ ../.&X&Xs.@XI.T .                     ",
"                    4 3 ; + . . o Y a.B.#X#X*X&X&Xc.X a p..                     ",
"                      4 < t . X # 4 b.;Xo.@ Y.&X].Q.O.O.a.5 8                   ",
"                        . = X V p.2 T.-X#Xo./.&X&X&X;XK.q.U C.7                 ",
"                          . O e.Y.k.n.).-X;X=X&X&X].'.r.G ! P.d..               ",
"                          . . a l.P.a.D.E._.&X&X&X&XW.w.C Q.D.d..               ",
"                      . b Z C 3 3 6 n 0.a.P.W.W.E.b.C 3 n C.T.! .               ",
"                    N U C.^.).I.N.C 4 1 6 M c B B 1 : . a h.C.7                 ",
"                  N P.).&Xc._ _ ` T < l > ..W X A M.I.U Z Q.) .                 ",
"                . M.].&XU.3     X < l >.&.m.:.l B _ c.^.E.V.#                   ",
"                . ) `.&Xw.X       - $.>.,.j S.2.+     / E 8                     ",
"                  # g.h.4         > %.,.,.&.f.3.k O                             ",
"                    # #           > $.$.>.+.A.:.$.O                             ",
"                                . e }.}.| i ;.h -                               ",
"                              o : [ |.|.oX(  .XXw                               ",
"                            X d s { .XOX$Xp.r ]     . .                         ",
"                            O H w.c {.+X} ~ Y.9 . o ) < .                       ",
"                            O q.).! * w q $ f.R.~.I L S , .                     ",
"                            @ L f.&         G ^.j.6.8.6.b .                     ",
"                              @ &           O I 8.t.L s @                       ",
"                                            . ^ K g O o                         ",
"                                              @ @ o                             ",
"                                                                                ",
"                                                                                ",
"                                                                                "
};
