/* XPM */
static char *space_g1677420736[] = {
/* columns rows colors chars-per-pixel */
"40 40 51 1 ",
"  c #7FBF37",
". c #80BF3A",
"X c #81C139",
"o c #82C039",
"O c #81C03B",
"+ c #83C13A",
"@ c #82C23A",
"# c #83C33B",
"$ c #84C23B",
"% c #82C13C",
"& c #83C23D",
"* c #85C33C",
"= c #84C33E",
"- c #83C53D",
"; c #84C43C",
": c #85C53D",
"> c #86C43D",
", c #85C43F",
"< c #87C53E",
"1 c #84C63E",
"2 c #85C73F",
"3 c #86C63E",
"4 c #87C73F",
"5 c #88C63F",
"6 c #86C540",
"7 c #87C641",
"8 c #89C740",
"9 c #88C742",
"0 c #86C840",
"q c #88C840",
"w c #89C941",
"e c #8AC841",
"r c #89C843",
"t c #8BC942",
"y c #8ACA42",
"u c #8BCB43",
"i c #8CCA43",
"p c #8AC944",
"a c #8BCA45",
"s c #8DCB44",
"d c #8CCB46",
"f c #8CCC44",
"g c #8DCD45",
"h c #8ECC45",
"j c #8DCC47",
"k c #8FCD46",
"l c #8ECE46",
"z c #8ECD48",
"x c #8FCE49",
"c c #90CE47",
"v c #91CF48",
/* pixels */
"85<<*5ei5<<5ee8<55555555+*ei8<5e*i85588*",
"<<<<<58e***5ie<+55555555*5ie85ee8ssiisi5",
"*<<5555<++*5ee<+555555558eee58eh5ii55ii5",
"+*<58<<<<<*<8e<<55555555iiee5eih$55$$585",
"$*<8e8<<i8<*8eii55555555hse58esi8si58scs",
"<<58e885se<*8iss55555555se85eee85i855sss",
"5888eees855eis8555555555ee58ei5**55.+8e8",
"se858esh+*5hhs<+55555555e5<8ie*+5i8*<svc",
"se<++<8s<*<ivce+*5ie<$*8eeesishh88<<88ss",
"ie<$*<ei$5esse85$<ee558eeeeeeeee888<8888",
"e855558e<ehh<*8e$<eeeeih5555<<<<888e8885",
"58eeee858ise<<5e$<eeeeie<<<<55558isse88*",
"58eeie85hi5<8e8<<<<585<*<<<5eeiiisssse88",
"8eieieeehe$<es8<5<<<58<+<58eesis8ssesi88",
"eieeeeeee858eee85**5ee5<iieie5888888888a",
"see88eii+5iie5eh<<*5shiehhhe8<*$<*****8r",
"55c5*<55555<5555e2;<uu4;X-4uu444.667rrra",
"55ii<<55i5555555e2-<uu4;44uu44;;rr7rrrar",
"iii5555i55<<555c4<;<uu4;uu444;;;aar7r6rr",
"5iic555i$$$<555542<2uu4;44;;4uu4ar76667r",
"iii55c5i<<<<<5ii4444u44;;;X;ucluaa767raz",
"5555iii555555cci2444444443;34444aaraaazx",
"5<55iii5555555i5444uu44444uu4;;;arrrrrrr",
"5*<<5c5555<<$<<<;4u44444;4ll4;;377r76&. ",
"<<55iiii5i555<oou444uuuu;4u4u4uu77rrarr7",
"o<<55555ii55<<<$4444uu4424uu444u77raar77",
"$$<<5i55c5i5555<u4444443;4u4u4uu7rrarr77",
"<*<55555iici5555u444444;44uuu444rrrrr7r7",
"5555i55iciiiii55cu4u4u4444uu444uaa7re777",
"55iii5555ci55u5iuuu4uuu44uuu4444dar07777",
"555i5555c5u55555u444uuu44uuu4444ja777<77",
"<5555<<55i5i5i544;34uu444uuu4444jdr76752",
"45uuu4uc4444u4uuc55<5iico$<55i55544<3;32",
"4iuu44uu3344uuuui5<<5ic5$<5ic5i5u44;;32-",
"4uu4444u34444uuu5<55ic5<555cciii4444;;22",
"uuu4444u4444u4uu<<5ic55<555iic5iu4442212",
"u444444444444u4u<$<5ii5$<<5c5555u4444422",
"44;44uuu4u44u4u4<555cc5<<<55i555uu444422",
"43;;4uuuuu4u44445555iiu4<555i5554u444442",
"4;@;uuuuu4uu4u44i555icu555ccc555uuu4444u"
};
