/* XPM */
static char *space_w1677420736[] = {
/* columns rows colors chars-per-pixel */
"40 40 242 2 ",
"   c #1D193E",
".  c #090E49",
"X  c #0C134C",
"o  c #1A1645",
"O  c #1C1A4B",
"+  c #151848",
"@  c #0A1953",
"#  c #121651",
"$  c #141B56",
"%  c #1B1D54",
"&  c #131E5B",
"*  c #1B1D58",
"=  c #100F4B",
"-  c #231C4C",
";  c #251A47",
":  c #211F50",
">  c #0A245A",
",  c #142353",
"<  c #1D2255",
"1  c #13225B",
"2  c #1C245C",
"3  c #1C295D",
"4  c #132A5A",
"5  c #16335B",
"6  c #25204F",
"7  c #2A214E",
"8  c #232354",
"9  c #2B2554",
"0  c #232956",
"q  c #2B2A55",
"w  c #23255C",
"e  c #232A5A",
"r  c #2C2C5C",
"t  c #312D54",
"y  c #302F5B",
"u  c #35335A",
"i  c #2F325F",
"p  c #171F63",
"a  c #1B2764",
"s  c #132B62",
"d  c #1D2A63",
"f  c #1B2D6B",
"g  c #152866",
"h  c #0B3764",
"j  c #1B3266",
"k  c #15326A",
"l  c #1D336B",
"z  c #1C3C6C",
"x  c #193966",
"c  c #1B3871",
"v  c #0E2C62",
"b  c #242C63",
"n  c #2A2C63",
"m  c #232D6B",
"M  c #2B2E69",
"N  c #212763",
"B  c #253364",
"V  c #2B3364",
"C  c #2C3A65",
"Z  c #24346B",
"A  c #2C346B",
"S  c #233B6C",
"D  c #2B3B6D",
"F  c #333464",
"G  c #33356C",
"H  c #323B6C",
"J  c #3A3A6A",
"K  c #243471",
"L  c #233B73",
"P  c #2B3B73",
"I  c #253B7B",
"U  c #2C3C7A",
"Y  c #2C3572",
"T  c #333D72",
"R  c #3C3E73",
"E  c #353A78",
"W  c #2B2C6A",
"Q  c #433F6D",
"!  c #1B4D7A",
"~  c #1D4277",
"^  c #1B4B76",
"/  c #27456D",
"(  c #36436D",
")  c #234273",
"_  c #2C4474",
"`  c #2B4B74",
"'  c #254479",
"]  c #2B437A",
"[  c #2A4D7C",
"{  c #254B77",
"}  c #344374",
"|  c #3C4474",
" . c #354977",
".. c #3D4A76",
"X. c #34447B",
"o. c #3B447C",
"O. c #344B7C",
"+. c #3C4B7B",
"@. c #2E527D",
"#. c #2A557D",
"$. c #32517D",
"%. c #3B517D",
"&. c #3E5A7F",
"*. c #424574",
"=. c #424D7C",
"-. c #44497B",
";. c #43537E",
":. c #4B547D",
">. c #1C5D85",
",. c #294481",
"<. c #2E4C82",
"1. c #274782",
"2. c #344C82",
"3. c #3B4D83",
"4. c #324D8B",
"5. c #344783",
"6. c #2C5383",
"7. c #2E558B",
"8. c #2C5F8C",
"9. c #285785",
"0. c #335483",
"q. c #3C5384",
"w. c #3B5B85",
"e. c #34538B",
"r. c #3B558B",
"t. c #335A8C",
"y. c #3C5B8B",
"u. c #375987",
"i. c #3B5593",
"p. c #3C5D92",
"a. c #355990",
"s. c #26648C",
"d. c #34638D",
"f. c #3D628C",
"g. c #2C6992",
"h. c #336393",
"j. c #3D6393",
"k. c #3D6C9B",
"l. c #386A98",
"z. c #3D729C",
"x. c #3B7CA4",
"c. c #3F76A7",
"v. c #3A6DA4",
"b. c #424D81",
"n. c #494E86",
"m. c #435384",
"M. c #4B5684",
"N. c #4B5A84",
"B. c #44568A",
"V. c #4A558B",
"C. c #445A8B",
"Z. c #4B5B8C",
"A. c #435A85",
"S. c #535D85",
"D. c #515C8C",
"F. c #515089",
"G. c #445D93",
"H. c #4B5D92",
"J. c #475895",
"K. c #535A91",
"L. c #585D94",
"P. c #48638E",
"I. c #59638B",
"U. c #456394",
"Y. c #4C6394",
"T. c #436B95",
"R. c #4A6A95",
"E. c #4C639A",
"W. c #446D9B",
"Q. c #4C6C9B",
"!. c #44669A",
"~. c #536495",
"^. c #5C6B95",
"/. c #53659B",
"(. c #546B9C",
"). c #5A6B9E",
"_. c #576897",
"`. c #49749C",
"'. c #47719B",
"]. c #53729E",
"[. c #5A779C",
"{. c #636D95",
"}. c #63729D",
"|. c #4B6DA4",
" X c #486BA3",
".X c #536DA3",
"XX c #5D6EA2",
"oX c #566FAA",
"OX c #4474A1",
"+X c #4B75A3",
"@X c #4E7CAB",
"#X c #487BA6",
"$X c #5272A4",
"%X c #5C72A2",
"&X c #517CA4",
"*X c #5B7BA5",
"=X c #5475AB",
"-X c #5C75A9",
";X c #537BAA",
":X c #5B7CAB",
">X c #497DB2",
",X c #5D7DB2",
"<X c #557DB1",
"1X c #6174A3",
"2X c #647CAC",
"3X c #6C7DAB",
"4X c #6776A7",
"5X c #6B7EB1",
"6X c #667DB7",
"7X c #7079A4",
"8X c #3D83A8",
"9X c #4784AB",
"0X c #5483AC",
"qX c #5985AA",
"wX c #4E83B9",
"eX c #4B86B4",
"rX c #5482B5",
"tX c #5A85B5",
"yX c #5D8AB5",
"uX c #558BBA",
"iX c #5B89BA",
"pX c #4E95BA",
"aX c #5992BB",
"sX c #6783AD",
"dX c #6384B4",
"fX c #6A81B2",
"gX c #638CBA",
"hX c #6B8CBB",
"jX c #678AB5",
"kX c #7487B8",
"lX c #5A9BC5",
"zX c #658AC0",
"xX c #748DC1",
"cX c #6797C4",
"vX c #7394C2",
"bX c #7896C4",
"nX c #679AD1",
"mX c #5FA6CA",
"MX c #7DA7D6",
"NX c #67A9D3",
"BX c #7FB1E4",
"VX c #83B5E6",
/* pixels */
"2 # # p > v v c @ { _ T V R u Q A l H.P Z m.M.A H b } H A T L d m M : N w + : O ",
". * # f f @ k k <.U.l +.| J R V XX/.5XC.T  .+...( B D N 2 } X.A M n * : w % : + ",
"X m p I I g 7.<.G.,.r.3.D b.A V.5X1X-X/.q.b.} =.m.}  .T D o.X.X.A A w n w o 8 - ",
"f m & g f c 4.4.,.k G.G.k O.} fX.X.XG.(./.%Xm.3.;.} Z./.J.3.P X.b G A G 9 = O : ",
"3.K K a I B.,.I k 5.' <Xu.) Q.Q.r.E.q.H./.%Xm.} X.M.XX/.C.3.P X.B B N G n o O o ",
"5.Z 5.U J.6X4.U U 5.c |.:X;X&X#.p.E.r.G.C.Y.~.B.K.5XkXB.X.q.,.X.Y b < G R r w o ",
"a $ M Y n.4XJ.Y 5.] 2.e.=XMX`.l.tX|.H..X)./.kX4X%XkX5XB.2.3.X.3.X.A 2 H R r 9 O ",
"< e p W E K.K.o.X.E.q.6.f.yXqXqXhXC.2.Y..XZ.kXXXV.m.V.B.C.O.L J.T D b J n o - - ",
"q q q i | M.n.*.-.H.O.(.#.[.aX`.jXE.[ A.q.%X}.^.m.Z.m.} O.L C.H.Z.~.M.D e : o - ",
"O q y q y *.-.*.b.~.O.R.#.qXqX9XdXQ.X.q.q.sX3X:.N.m.m.b.B 3.C.q.B.).K.H 9 8 ; ; ",
"  u *.u J *.*.C P.*Xw.P.f.gX0XT.:X%XA.%...3XsX;.Z.;.M.Z.2 }.H.O.) Y.Z.V 0 q : o ",
"t t t t u | +.q.C @.) { `.hX&Xk.].%X_.m.D ^.[.:.N.m.N.;.C fXV. .D A.m.C 0 q - ; ",
"t t u *.-...A.Q.6.j.1.8.cXMX>X!.Q.~.P.:.C I.{.I.-.;.:.C ;.4X..+.O.A.m.H F 9 ; ; ",
"q t ( -. ./ u.;XtXuXc.lXBXBX<X<XY.;.( =.( I.{.:.:.:.N.i {.^...m. .w.%.( G r - 7 ",
"u i 0 , 4 ' k.wXeXc.>XzXnXnXc.wXP...( %.( I.{.I.I.:.S.-.7XS.;.m.S w.C.| F r 9 7 ",
"+ 3 A O.(.gXzX9XlX>XlX>XzXv.>.v.$.&.;.;.C :.{.:.{.:.:.I.1X;.N.;.S (.%X+.G r : : ",
"O.2.V./.J.$XyXeX9X#XrXt.t.>Xg.! ` [.[.&.5 P.[.P.:...=...kXY.B.O.L .XQ.J.V.Y * = ",
"' ] X.X.5.G.W.c.nXl.9.t.<XcXl.h 5 / ` ` / [.sX^.A. .+.+.kX5XR.O.u..XH.J.J.E Y W ",
"s Z Z P r.R.W.+X#X0XrXtX@XOX;X+X&.` 5 ` w.qX*Xq.` +.~.X.3XbX5X].).Q.3.o.-.E o.Y ",
"G +.O.0.Q.Q.w.q.q.+X+Xz.t.h.tX:XsXhXhXjX'.'.*XqXf.].2XS H.fX).C.}.Z.} ( G G Q E ",
"J -.3.w.].Q.%.X.H.U.#.g.k.OX,XG.$.qXvX0XT.d.T.#X&XR.y./ E.1Xm.X.I.N.| | G n R E ",
"n J _ $.R.].Z.V.4XB.t.tXcXrX.XB.q.U.|. XgXtXc.8.d.9.6.!.2X~.m.~.;.S.*.| F n G G ",
"J J H %.A.P.Z.;.)._ u.gXMXxXH.2.2.e.!.!.;Xh.8.g.s.9X&XdX:X+.n.D.} P.*.G F n n M ",
"q 8 C ..A._.).V.B S 2XvXxXhX/..Xp.e.t.p.rXh.g.eX! cX9X&XQ.Z.).b.} ^.m.G W n N m ",
"0 G *.-.o.-.Z.%XR.fXkXXX/.xXY.e.7.c 4.gX<Xh.uXaX>.eXg.9X*XP.=.~.q.%XH.P Y M & m ",
", , n Q n.R O.Q.hX2X).+.b.H.G.0.i.|.<X,X=XtXlXc.s.8Xs.9XgX:XZ.H.-X$XG.X.Z f K U ",
"4 3 e J F.o.` W.yXU.m.b.L.L.jX=XzXzX,X!.dXMX0X! s.pXpXpX@X:X.X3.dXp.2.U g a U U ",
"j 3.E n n.m.$.T.$Xu.+.V.K.Z.hX+XiXW.6.I |.6X6.! 8XmXmXlX#X+X.X0.j.6.I c f m Y m ",
"f 5.U a E X.] U.$X!.O.A.} P.kXqXyX+XT.y.XX(.p.nXaX8XpXmXaX9XQ.e.' t.[ S 3.b.A 2 ",
"p K m K <.L c G.Y.U.O.w.$.sXkXhX&X&XQ.q.B.q.A.vXx.8XmXpXeXaX#X<.~ !.r.P V.V.n < ",
"p m I ' 4.1.2.E./.r.` #.f.[.^.A.qXyX].C.V.V.Y.].9.9XNX8Xx.eX@Xt.<.u.O.Z E *.r O ",
"m E 2.' ] B././.1X[ ) h W.qXP.%.#.0X].~.A.} Y.R.`.#.x.x.uX#XW.@Xt.' S b 2 n i 6 ",
"Y m % 0 i F *.D./.XXoX,XoXB.N.q.9.T.hX(.) ) /.~.Y.{ 0X`.tX;X+X9.|.1.k k D T A = ",
"a 2 8 - 7 t y R .XoX X<X,XJ.:.A.0.W.jX.Xd.f.[.Y.Z./ '.k.%XQ.@Xt.7.a.e.U d Z B < ",
"1 3 8 O 6 7 9 n o.J.4.i..XA...&.[ OX-X%X&XhX%XA.M.` d.f.G.] j.7.h e.i.L > 1 a N ",
"b b O + 8 r r N E E.4.4.oXC...%.[ +XU.C.Q.gX_.A.b.q.$.#.q.L j.! > I L > 1 * * n ",
"s A N O O < w d I J.,.,.G.2.Z 5 0.;Xq.P @.].A.V.T q.[ ` 2.X.j.~ c c 4 > 1 $ * G ",
"@ b A 2 # . X a 5. Xi.i..XE.q.O.[ .XJ.+.y.!.+.o.A ..` S P } [ z 0._ j a 2 # # M ",
"& a d 3 2 $ & f f 4.,.,.i.y.B.] ' p.H.m.E.C.T M H H ) x b Z s c 2.L Z N 1 % * * ",
"K a @ $ P P K U g I c k K U [ j u.2.E b O.` E W R B S S d d 4 t.] f d d 2 M n = "
};
